<svg xmlns="http://www.w3.org/2000/svg" width="48" height="48" viewBox="0 0 48 48" fill="none">
  <path d="M42.6665 8.88877C44.627 8.88877 46.2221 7.29366 46.2221 5.33321C46.2221 3.37277 44.627 1.77766 42.6665 1.77766C40.7061 1.77766 39.111 3.37277 39.111 5.33321C39.111 7.29366 40.7061 8.88877 42.6665 8.88877ZM42.6665 3.55544C43.647 3.55544 44.4443 4.35277 44.4443 5.33321C44.4443 6.31366 43.647 7.11099 42.6665 7.11099C41.6861 7.11099 40.8888 6.31366 40.8888 5.33321C40.8888 4.35277 41.6861 3.55544 42.6665 3.55544ZM5.33321 39.111C3.37277 39.111 1.77766 40.7061 1.77766 42.6665C1.77766 44.627 3.37277 46.2221 5.33321 46.2221C7.29366 46.2221 8.88877 44.627 8.88877 42.6665C8.88877 40.7061 7.29366 39.111 5.33321 39.111ZM5.33321 44.4443C4.35277 44.4443 3.55544 43.647 3.55544 42.6665C3.55544 41.6861 4.35277 40.8888 5.33321 40.8888C6.31366 40.8888 7.11099 41.6861 7.11099 42.6665C7.11099 43.647 6.31366 44.4443 5.33321 44.4443ZM16.8888 18.8414C16.653 18.8414 16.4269 18.9351 16.2602 19.1018C16.0935 19.2685 15.9999 19.4946 15.9999 19.7303V23.1712C15.9999 23.407 16.0935 23.6331 16.2602 23.7998C16.4269 23.9665 16.653 24.0601 16.8888 24.0601C17.1245 24.0601 17.3506 23.9665 17.5173 23.7998C17.684 23.6331 17.7777 23.407 17.7777 23.1712V19.7303C17.7777 19.4946 17.684 19.2685 17.5173 19.1018C17.3506 18.9351 17.1245 18.8414 16.8888 18.8414ZM16.8888 25.7239C16.653 25.7239 16.4269 25.8175 16.2602 25.9842C16.0935 26.1509 15.9999 26.377 15.9999 26.6128V30.0541C15.9999 30.545 16.3979 30.9412 16.8888 30.9412C17.3797 30.9412 17.7777 30.5414 17.7777 30.0505V26.6125C17.7776 26.3768 17.6839 26.1508 17.5172 25.9841C17.3505 25.8175 17.1245 25.7239 16.8888 25.7239ZM29.1552 16.8888C29.1552 16.653 29.0616 16.4269 28.8949 16.2602C28.7282 16.0935 28.5021 15.9999 28.2663 15.9999H24.8254C24.5897 15.9999 24.3636 16.0935 24.1969 16.2602C24.0302 16.4269 23.9365 16.653 23.9365 16.8888C23.9365 17.1245 24.0302 17.3506 24.1969 17.5173C24.3636 17.684 24.5897 17.7777 24.8254 17.7777H28.2663C28.5021 17.7777 28.7282 17.684 28.8949 17.5173C29.0616 17.3506 29.1552 17.1245 29.1552 16.8888ZM31.111 17.0554C30.6201 17.0554 30.2221 17.4581 30.2221 17.949V21.3808C30.2221 21.6165 30.3158 21.8426 30.4825 22.0093C30.6492 22.176 30.8752 22.2697 31.111 22.2697C31.3467 22.2697 31.5728 22.176 31.7395 22.0093C31.9062 21.8426 31.9999 21.6165 31.9999 21.3808V17.9394C31.9998 17.823 31.9767 17.7077 31.9319 17.6002C31.8871 17.4926 31.8216 17.395 31.739 17.3129C31.6564 17.2308 31.5584 17.1657 31.4506 17.1216C31.3429 17.0774 31.2275 17.0549 31.111 17.0554ZM31.111 23.9334C30.8752 23.9334 30.6492 24.0271 30.4825 24.1938C30.3158 24.3605 30.2221 24.5866 30.2221 24.8223V28.2632C30.2221 28.499 30.3158 28.7251 30.4825 28.8918C30.6492 29.0585 30.8752 29.1521 31.111 29.1521C31.3467 29.1521 31.5728 29.0585 31.7395 28.8918C31.9062 28.7251 31.9999 28.499 31.9999 28.2632V24.8223C31.9999 24.5866 31.9062 24.3605 31.7395 24.1938C31.5728 24.0271 31.3467 23.9334 31.111 23.9334ZM30.0508 30.2221H26.6099C26.3741 30.2221 26.148 30.3158 25.9813 30.4825C25.8146 30.6492 25.721 30.8752 25.721 31.111C25.721 31.3467 25.8146 31.5728 25.9813 31.7395C26.148 31.9062 26.3741 31.9999 26.6099 31.9999H30.063C30.5539 31.9999 30.9459 31.6019 30.9459 31.111C30.9459 30.6201 30.5417 30.2221 30.0508 30.2221ZM22.273 16.8888C22.273 16.653 22.1793 16.4269 22.0126 16.2602C21.8459 16.0935 21.6199 15.9999 21.3841 15.9999H17.9432C17.4523 15.9999 17.0574 16.3979 17.0574 16.8888C17.0574 17.3797 17.4585 17.7777 17.9494 17.7777H21.3843C21.62 17.7776 21.8461 17.6839 22.0127 17.5172C22.1794 17.3505 22.273 17.1245 22.273 16.8888ZM23.1683 30.2221H19.7274C19.4917 30.2221 19.2656 30.3158 19.0989 30.4825C18.9322 30.6492 18.8385 30.8752 18.8385 31.111C18.8385 31.3467 18.9322 31.5728 19.0989 31.7395C19.2656 31.9062 19.4917 31.9999 19.7274 31.9999H23.1683C23.4041 31.9999 23.6302 31.9062 23.7969 31.7395C23.9636 31.5728 24.0572 31.3467 24.0572 31.111C24.0572 30.8752 23.9636 30.6492 23.7969 30.4825C23.6302 30.3158 23.4041 30.2221 23.1683 30.2221Z" fill="white"/>
  <path d="M47.1111 24.8889C47.3469 24.8889 47.573 24.7952 47.7397 24.6285C47.9063 24.4618 48 24.2357 48 24C48 23.7643 47.9063 23.5382 47.7397 23.3715C47.573 23.2048 47.3469 23.1111 47.1111 23.1111H36.4444V13.3333H47.1111C47.3469 13.3333 47.573 13.2397 47.7397 13.073C47.9063 12.9063 48 12.6802 48 12.4444C48 12.2087 47.9063 11.9826 47.7397 11.8159C47.573 11.6492 47.3469 11.5556 47.1111 11.5556H36.4444V0.888889C36.4444 0.653141 36.3508 0.427049 36.1841 0.26035C36.0174 0.0936507 35.7913 0 35.5556 0C35.3198 0 35.0937 0.0936507 34.927 0.26035C34.7603 0.427049 34.6667 0.653141 34.6667 0.888889V11.5556H24.8889V0.888889C24.8889 0.653141 24.7952 0.427049 24.6285 0.26035C24.4618 0.0936507 24.2357 0 24 0C23.7643 0 23.5382 0.0936507 23.3715 0.26035C23.2048 0.427049 23.1111 0.653141 23.1111 0.888889V11.5556H13.3333V0.888889C13.3333 0.653141 13.2397 0.427049 13.073 0.26035C12.9063 0.0936507 12.6802 0 12.4444 0C12.2087 0 11.9826 0.0936507 11.8159 0.26035C11.6492 0.427049 11.5556 0.653141 11.5556 0.888889V11.5556H0.888889C0.653141 11.5556 0.427049 11.6492 0.26035 11.8159C0.0936507 11.9826 0 12.2087 0 12.4444C0 12.6802 0.0936507 12.9063 0.26035 13.073C0.427049 13.2397 0.653141 13.3333 0.888889 13.3333H11.5556V23.1111H0.888889C0.653141 23.1111 0.427049 23.2048 0.26035 23.3715C0.0936507 23.5382 0 23.7643 0 24C0 24.2357 0.0936507 24.4618 0.26035 24.6285C0.427049 24.7952 0.653141 24.8889 0.888889 24.8889H11.5556V34.6667H0.888889C0.653141 34.6667 0.427049 34.7603 0.26035 34.927C0.0936507 35.0937 0 35.3198 0 35.5556C0 35.7913 0.0936507 36.0174 0.26035 36.1841C0.427049 36.3508 0.653141 36.4444 0.888889 36.4444H11.5556V47.1111C11.5556 47.3469 11.6492 47.573 11.8159 47.7397C11.9826 47.9063 12.2087 48 12.4444 48C12.6802 48 12.9063 47.9063 13.073 47.7397C13.2397 47.573 13.3333 47.3469 13.3333 47.1111V36.4444H23.1111V47.1111C23.1111 47.3469 23.2048 47.573 23.3715 47.7397C23.5382 47.9063 23.7643 48 24 48C24.2357 48 24.4618 47.9063 24.6285 47.7397C24.7952 47.573 24.8889 47.3469 24.8889 47.1111V36.4444H34.6667V47.1111C34.6667 47.3469 34.7603 47.573 34.927 47.7397C35.0937 47.9063 35.3198 48 35.5556 48C35.7913 48 36.0174 47.9063 36.1841 47.7397C36.3508 47.573 36.4444 47.3469 36.4444 47.1111V36.4444H47.1111C47.3469 36.4444 47.573 36.3508 47.7397 36.1841C47.9063 36.0174 48 35.7913 48 35.5556C48 35.3198 47.9063 35.0937 47.7397 34.927C47.573 34.7603 47.3469 34.6667 47.1111 34.6667H36.4444V24.8889H47.1111ZM13.3333 34.6667V13.3333H34.6667V34.6667H13.3333Z" fill="white"/>
</svg>