<svg xmlns="http://www.w3.org/2000/svg" width="52" height="52" viewBox="0 0 52 52" fill="none">
  <path d="M3.71417 15.7856C5.76261 15.7856 7.42847 14.1193 7.42847 12.0713C7.42847 10.0234 5.76261 8.35704 3.71417 8.35704C1.66574 8.35704 -0.00012207 10.0234 -0.00012207 12.0713C-0.00012207 14.1193 1.66574 15.7856 3.71417 15.7856ZM3.71417 10.2142C4.73792 10.2142 5.57132 11.0471 5.57132 12.0713C5.57132 13.0955 4.73792 13.9285 3.71417 13.9285C2.69042 13.9285 1.85703 13.0955 1.85703 12.0713C1.85703 11.0471 2.69042 10.2142 3.71417 10.2142ZM42.25 43.9841C41.9711 43.9841 41.7036 44.0949 41.5064 44.2921C41.3092 44.4893 41.1984 44.7568 41.1984 45.0357C41.1984 45.3146 41.3092 45.5821 41.5064 45.7793C41.7036 45.9765 41.9711 46.0873 42.25 46.0873C42.5289 46.0873 42.7964 45.9765 42.9936 45.7793C43.1908 45.5821 43.3016 45.3146 43.3016 45.0357C43.3016 44.7568 43.1908 44.4893 42.9936 44.2921C42.7964 44.0949 42.5289 43.9841 42.25 43.9841ZM17.1785 6.15841C17.4574 6.15841 17.7249 6.04761 17.9221 5.8504C18.1193 5.65318 18.2301 5.3857 18.2301 5.1068C18.2301 4.82789 18.1193 4.56041 17.9221 4.3632C17.7249 4.16598 17.4574 4.05519 17.1785 4.05519C16.8996 4.05519 16.6321 4.16598 16.4349 4.3632C16.2377 4.56041 16.1269 4.82789 16.1269 5.1068C16.1269 5.3857 16.2377 5.65318 16.4349 5.8504C16.6321 6.04761 16.8996 6.15841 17.1785 6.15841ZM10.6785 3.37269C10.8166 3.37269 10.9533 3.34549 11.0809 3.29264C11.2085 3.23979 11.3244 3.16233 11.4221 3.06468C11.5197 2.96703 11.5972 2.8511 11.65 2.72351C11.7029 2.59592 11.7301 2.45918 11.7301 2.32108C11.7301 2.18298 11.7029 2.04623 11.65 1.91864C11.5972 1.79106 11.5197 1.67513 11.4221 1.57748C11.3244 1.47983 11.2085 1.40236 11.0809 1.34952C10.9533 1.29667 10.8166 1.26947 10.6785 1.26947C10.3996 1.26947 10.1321 1.38026 9.93487 1.57748C9.73766 1.77469 9.62687 2.04217 9.62687 2.32108C9.62687 2.59998 9.73766 2.86746 9.93487 3.06468C10.1321 3.26189 10.3996 3.37269 10.6785 3.37269Z" fill="white"/>
  <path d="M48.3067 22.2858L35.9841 21.7725C35.8917 21.7683 35.8281 21.7231 35.7956 21.6374C35.7619 21.5517 35.7775 21.4756 35.8427 21.4101L38.1523 19.1005C39.6123 17.6401 39.7211 15.3468 38.4007 13.8806C37.7105 13.1133 36.7639 12.6762 35.7348 12.6495C35.231 12.637 34.7298 12.7269 34.2618 12.9137C33.7937 13.1005 33.3685 13.3804 33.0117 13.7364L30.5905 16.1572C30.5252 16.2224 30.4472 16.238 30.363 16.2052C30.2778 16.1716 30.2316 16.1077 30.2279 16.0163L29.7144 3.71429C29.7144 1.66633 28.0485 0 26.0001 0C23.9516 0 22.2858 1.66633 22.2867 3.67576L21.7725 16.0156C21.7688 16.1075 21.7226 16.1716 21.6374 16.205C21.5513 16.2377 21.4742 16.2226 21.4099 16.1574L19.1003 13.8478C17.6403 12.3869 15.347 12.2781 13.8808 13.5999C13.1145 14.2905 12.6774 15.2367 12.6502 16.2649C12.6379 16.7688 12.7278 17.2699 12.9146 17.7381C13.1013 18.2063 13.3809 18.6318 13.7366 18.9889L16.1579 21.4106C16.2231 21.4754 16.2387 21.5515 16.205 21.6374C16.1723 21.7231 16.1089 21.7683 16.0165 21.7725L3.71429 22.2858C1.66586 22.2858 0 23.9521 0 26.0001C0 28.0476 1.66493 29.7139 3.67437 29.7134L16.016 30.2276C16.1084 30.2318 16.172 30.2771 16.2045 30.3627C16.2382 30.4484 16.2226 30.5245 16.1574 30.59L13.8478 32.8996C12.3879 34.36 12.279 36.6534 13.5994 38.1196C14.2896 38.8868 15.2363 39.3239 16.2654 39.3506C17.2701 39.3687 18.2722 38.9806 18.9884 38.2637L21.4097 35.8429C21.474 35.7772 21.551 35.7608 21.6372 35.7949C21.7224 35.8285 21.7686 35.8924 21.7723 35.9839L22.2858 48.2858C22.2858 50.3338 23.9516 52.0001 26.0001 52.0001C28.0485 52.0001 29.7144 50.3338 29.7134 48.3244L30.2276 35.9845C30.2313 35.8926 30.2775 35.8285 30.3627 35.7951C30.447 35.7612 30.525 35.7765 30.5902 35.8427L32.8998 38.1523C34.3588 39.6127 36.6522 39.7207 38.1193 38.4007C38.8866 37.7101 39.3228 36.7634 39.3499 35.7348C39.3622 35.231 39.2723 34.7299 39.0856 34.2618C38.8988 33.7937 38.6192 33.3683 38.2635 33.0113L35.8422 30.5895C35.777 30.5248 35.7615 30.4486 35.7951 30.3627C35.8279 30.2771 35.8912 30.2318 35.9836 30.2276L48.2858 29.7144C50.3343 29.7144 52.0001 28.048 52.0001 26.0001C52.0001 23.9588 50.3452 22.2971 48.3067 22.2858ZM48.2468 27.8581L35.9061 28.3723C35.0736 28.4067 34.3681 28.9109 34.0643 29.6881C33.7613 30.4653 33.9401 31.3141 34.5295 31.903L36.9507 34.3243C37.3143 34.6878 37.5074 35.1716 37.4939 35.6862C37.4805 36.2009 37.2609 36.6747 36.8774 37.0206C36.1566 37.6694 34.9622 37.5877 34.2131 36.8393L31.9035 34.5292C31.3141 33.9417 30.467 33.762 29.6881 34.065C28.9118 34.3679 28.4067 35.0739 28.3723 35.9072L27.8572 48.2858C27.8572 49.31 27.0238 50.143 26.0001 50.143C24.9763 50.143 24.1429 49.31 24.142 48.2473L23.6278 35.9065C23.5934 35.0736 23.0883 34.3677 22.312 34.0647C22.069 33.9694 21.8104 33.9202 21.5494 33.9196C21.0143 33.9196 20.4966 34.13 20.0967 34.5295L17.6754 36.9507C17.3119 37.3152 16.8267 37.5148 16.3134 37.4939C16.0607 37.488 15.8119 37.4302 15.5824 37.3242C15.353 37.2181 15.1478 37.066 14.9795 36.8774C14.3311 36.1568 14.4129 34.9617 15.1608 34.2126L17.4704 31.9035C18.0598 31.3141 18.2386 30.4653 17.9356 29.6881C17.6318 28.9109 16.9263 28.4067 16.0938 28.3723L3.71429 27.8572C2.69054 27.8572 1.85715 27.0243 1.85715 26.0001C1.85715 24.9758 2.69054 24.1429 3.75329 24.142L16.094 23.6278C16.9265 23.5934 17.632 23.0892 17.9359 22.312C18.2388 21.5348 18.0601 20.6861 17.4706 20.0971L15.0494 17.6759C14.8704 17.4981 14.7298 17.2854 14.6363 17.051C14.5429 16.8167 14.4986 16.5656 14.5062 16.3134C14.5123 16.0608 14.5702 15.8121 14.6762 15.5828C14.7823 15.3534 14.9343 15.1483 15.1227 14.98C15.8436 14.3307 17.0407 14.4133 17.7871 15.1608L20.0967 17.4709C20.687 18.0598 21.5348 18.2386 22.312 17.9352C23.0883 17.6322 23.5934 16.9263 23.6278 16.0929L24.1429 3.71429C24.1429 2.69008 24.9763 1.85715 26.0001 1.85715C27.0238 1.85715 27.8572 2.69008 27.8581 3.75283L28.3723 16.0936C28.4067 16.9265 28.9118 17.6325 29.6881 17.9354C30.4663 18.2379 31.3141 18.0601 31.9035 17.4706L34.3247 15.0494C34.6892 14.6854 35.1772 14.4994 35.6867 14.5062C35.9394 14.5121 36.1882 14.5699 36.4177 14.6759C36.6471 14.782 36.8524 14.9341 37.0206 15.1227C37.669 15.8433 37.5873 17.0384 36.8393 17.7875L34.5297 20.0967C33.9403 20.6861 33.7615 21.5348 34.0645 22.312C34.3684 23.0892 35.0739 23.5934 35.9063 23.6278L48.2471 24.142C48.2608 24.1424 48.2733 24.1429 48.2861 24.1429C49.3098 24.1429 50.1432 24.9758 50.1432 26.0001C50.1432 27.0243 49.3096 27.8572 48.2468 27.8581Z" fill="white"/>
  <path d="M26.6564 21.4037C26.3082 21.0555 25.6917 21.0555 25.3434 21.4037L21.4042 25.3434C21.2301 25.5176 21.1323 25.7537 21.1323 25.9999C21.1323 26.2462 21.2301 26.4823 21.4042 26.6564L25.3434 30.5961C25.4296 30.6824 25.532 30.7508 25.6446 30.7975C25.7573 30.8442 25.878 30.8682 25.9999 30.8682C26.1219 30.8682 26.2426 30.8442 26.3553 30.7975C26.4679 30.7508 26.5703 30.6824 26.6564 30.5961L30.5957 26.6564C30.7698 26.4823 30.8676 26.2462 30.8676 25.9999C30.8676 25.7537 30.7698 25.5176 30.5957 25.3434L26.6564 21.4037ZM25.9999 28.6264L23.3739 25.9999L25.9999 23.3735L28.6259 25.9999L25.9999 28.6264Z" fill="white"/>
</svg>