<svg xmlns="http://www.w3.org/2000/svg" width="49" height="52" viewBox="0 0 49 52" fill="none">
<path d="M45.2354 3.61096C43.3124 3.61096 41.7485 5.17526 41.7485 7.09783C41.7485 9.0204 43.3124 10.5847 45.2354 10.5847C47.1584 10.5847 48.7223 9.0204 48.7223 7.09783C48.7223 5.17526 47.1584 3.61096 45.2354 3.61096ZM45.2354 8.84127C44.2743 8.84127 43.4919 8.05934 43.4919 7.09783C43.4919 6.13633 44.2743 5.3544 45.2354 5.3544C46.1965 5.3544 46.9788 6.13633 46.9788 7.09783C46.9788 8.05934 46.1965 8.84127 45.2354 8.84127ZM39.5692 2.41867C39.7001 2.42061 39.83 2.39652 39.9515 2.34778C40.073 2.29905 40.1835 2.22665 40.2768 2.13479C40.37 2.04294 40.444 1.93346 40.4945 1.81273C40.5451 1.69201 40.5711 1.56243 40.5711 1.43156C40.5711 1.30068 40.5451 1.17111 40.4945 1.05038C40.444 0.92965 40.37 0.820174 40.2768 0.728319C40.1835 0.636465 40.073 0.564065 39.9515 0.51533C39.83 0.466596 39.7001 0.4425 39.5692 0.444445C39.31 0.448297 39.0626 0.553991 38.8806 0.738691C38.6987 0.923391 38.5967 1.17227 38.5967 1.43156C38.5967 1.69084 38.6987 1.93972 38.8806 2.12442C39.0626 2.30912 39.31 2.41482 39.5692 2.41867ZM32.5955 5.03382C32.7263 5.03577 32.8563 5.01167 32.9777 4.96294C33.0992 4.9142 33.2098 4.8418 33.303 4.74995C33.3962 4.65809 33.4703 4.54862 33.5208 4.42789C33.5713 4.30716 33.5974 4.17759 33.5974 4.04671C33.5974 3.91583 33.5713 3.78626 33.5208 3.66553C33.4703 3.5448 33.3962 3.43533 33.303 3.34347C33.2098 3.25162 33.0992 3.17922 32.9777 3.13048C32.8563 3.08175 32.7263 3.05765 32.5955 3.0596C32.3362 3.06345 32.0889 3.16914 31.9069 3.35384C31.7249 3.53854 31.6229 3.78742 31.6229 4.04671C31.6229 4.306 31.7249 4.55487 31.9069 4.73957C32.0889 4.92428 32.3362 5.02997 32.5955 5.03382ZM44.3637 18.4302H40.0051V14.0716C40.0051 13.5902 39.6152 13.1999 39.1334 13.1999H33.9031V7.96955C33.9031 7.48814 33.5132 7.09783 33.0313 7.09783H1.64949C1.16765 7.09783 0.777771 7.48814 0.777771 7.96955V39.3514C0.777771 39.8328 1.16765 40.2231 1.64949 40.2231H6.8798V45.4534C6.8798 45.9348 7.26967 46.3251 7.75151 46.3251H12.1101V50.6837C12.1101 51.1651 12.5 51.5554 12.9818 51.5554H44.3637C44.8455 51.5554 45.2354 51.1651 45.2354 50.6837V19.3019C45.2354 18.8205 44.8455 18.4302 44.3637 18.4302ZM43.4919 20.1736V48.5794L40.0051 45.0925V20.1736H43.4919ZM38.2616 14.9433V43.3491L33.9031 38.9905V14.9433H38.2616ZM2.52121 8.84127H32.1596V38.4797H2.52121V8.84127ZM8.62323 40.2231H32.6704L37.029 44.5817H8.62323V40.2231ZM13.8535 46.3251H38.7725L42.2593 49.812H13.8535V46.3251Z" fill="#0d6efd"/>
<path d="M27.2026 17.4968L23.5045 13.7983C23.4236 13.7173 23.3276 13.6531 23.2218 13.6093C23.1161 13.5654 23.0027 13.5429 22.8882 13.5429C22.7738 13.5429 22.6604 13.5654 22.5547 13.6093C22.4489 13.6531 22.3528 13.7173 22.2719 13.7983L17.3404 18.7294L12.4089 13.7983C12.082 13.4714 11.5032 13.4714 11.1763 13.7983L7.47823 17.4968C7.3148 17.6602 7.223 17.8819 7.223 18.1131C7.223 18.3442 7.3148 18.5659 7.47823 18.7294L12.4098 23.6605L7.47823 28.5916C7.3148 28.755 7.223 28.9767 7.223 29.2079C7.223 29.439 7.3148 29.6607 7.47823 29.8242L11.1763 33.5226C11.2572 33.6036 11.3533 33.6679 11.459 33.7117C11.5648 33.7555 11.6781 33.7781 11.7926 33.7781C11.907 33.7781 12.0204 33.7555 12.1261 33.7117C12.2319 33.6679 12.328 33.6036 12.4089 33.5226L17.3404 28.5916L22.2719 33.5226C22.3528 33.6036 22.4489 33.6679 22.5547 33.7117C22.6604 33.7555 22.7738 33.7781 22.8882 33.7781C23.0027 33.7781 23.1161 33.7555 23.2218 33.7117C23.3276 33.6679 23.4236 33.6036 23.5045 33.5226L27.2026 29.8242C27.366 29.6607 27.4578 29.439 27.4578 29.2079C27.4578 28.9767 27.366 28.755 27.2026 28.5916L22.2711 23.6605L27.2026 18.7294C27.366 18.5659 27.4578 18.3442 27.4578 18.1131C27.4578 17.8819 27.366 17.6602 27.2026 17.4968ZM20.4221 23.0442C20.2588 23.2077 20.167 23.4293 20.167 23.6605C20.167 23.8916 20.2588 24.1133 20.4221 24.2768L25.3537 29.2079L22.8885 31.6735L17.9569 26.7424C17.7867 26.5722 17.5636 26.487 17.3406 26.487C17.1177 26.487 16.8945 26.5722 16.7243 26.7424L11.7928 31.6735L9.32714 29.2079L14.2587 24.2768C14.422 24.1133 14.5138 23.8916 14.5138 23.6605C14.5138 23.4293 14.422 23.2077 14.2587 23.0442L9.32714 18.1131L11.7924 15.6474L16.7239 20.5785C16.8874 20.7419 17.109 20.8337 17.3402 20.8337C17.5713 20.8337 17.793 20.7419 17.9565 20.5785L22.888 15.6474L25.3532 18.1131L20.4221 23.0442Z" fill="#0d6efd"/>
</svg>