<svg xmlns="http://www.w3.org/2000/svg" width="46" height="44" viewBox="0 0 46 44" fill="none">
  <path d="M3.46995 16.7603C3.30706 16.948 3.2255 17.1925 3.24319 17.4401C3.26088 17.6877 3.37636 17.9182 3.56429 18.081C4.6068 18.9852 5.82169 19.6702 7.1361 20.0949C7.23233 20.126 7.32949 20.141 7.42571 20.141C7.64957 20.1414 7.86621 20.0621 8.03656 19.9172C8.20691 19.7724 8.31975 19.5716 8.35473 19.3511C8.3897 19.1306 8.34452 18.9049 8.22732 18.7147C8.11012 18.5245 7.92862 18.3823 7.71556 18.3138C6.64067 17.9664 5.64722 17.4061 4.7948 16.6664C4.60654 16.5039 4.3613 16.4224 4.1129 16.44C3.86451 16.4576 3.63327 16.5728 3.46995 16.7603ZM1.16713 8.03352C1.2832 8.07485 1.4063 8.09297 1.52939 8.08685C1.65248 8.08073 1.77316 8.05048 1.88453 7.99784C1.9959 7.9452 2.09578 7.8712 2.17846 7.78006C2.26114 7.68892 2.32501 7.58243 2.36642 7.46667C2.74596 6.40501 3.33624 5.43055 4.10198 4.60152C4.27035 4.41872 4.35901 4.1767 4.34844 3.92872C4.33788 3.68073 4.22896 3.44709 4.04565 3.27918C3.86234 3.11128 3.61965 3.02287 3.37098 3.0334C3.1223 3.04393 2.888 3.15255 2.71963 3.33535C1.78353 4.34818 1.06229 5.53918 0.599174 6.83686C0.557484 6.95261 0.539108 7.07543 0.545102 7.19827C0.551096 7.32112 0.581341 7.44157 0.634103 7.55274C0.686865 7.66391 0.761107 7.7636 0.852575 7.8461C0.944042 7.9286 1.05094 7.99229 1.16713 8.03352ZM17.0015 16.9477C17.0969 17.0256 17.2067 17.084 17.3248 17.1195C17.4428 17.1551 17.5667 17.167 17.6894 17.1548C17.8121 17.1426 17.9311 17.1063 18.0398 17.0482C18.1484 16.9901 18.2445 16.9112 18.3226 16.816C19.1981 15.7505 19.8497 14.5202 20.2386 13.1984C20.3085 12.9601 20.2807 12.704 20.1615 12.4861C20.0422 12.2683 19.8411 12.1065 19.6023 12.0364C19.484 12.0014 19.3599 11.9901 19.2372 12.0031C19.1144 12.0161 18.9955 12.0531 18.8871 12.1121C18.7788 12.171 18.6832 12.2507 18.6058 12.3466C18.5284 12.4425 18.4707 12.5527 18.4361 12.6708C18.1191 13.7527 17.5858 14.7594 16.8684 15.6303C16.7109 15.8226 16.6364 16.0694 16.6614 16.3165C16.6863 16.5636 16.8087 16.7906 17.0015 16.9477ZM1.90219 15.3656C2.06171 15.3655 2.21857 15.3249 2.35795 15.2475C2.49734 15.1701 2.61464 15.0586 2.69879 14.9235C2.78293 14.7883 2.83114 14.634 2.83885 14.4751C2.84656 14.3163 2.81353 14.158 2.74287 14.0154C2.24303 13.0054 1.95332 11.905 1.89116 10.7805C1.86276 10.2649 1.41074 9.8649 0.901928 9.89814C0.778808 9.90501 0.658252 9.93601 0.547147 9.98936C0.436042 10.0427 0.336566 10.1174 0.254401 10.2091C0.172235 10.3008 0.10899 10.4077 0.068279 10.5238C0.0275679 10.6399 0.0101888 10.7628 0.0171331 10.8856C0.092173 12.2617 0.446768 13.6083 1.05941 14.8437C1.137 15.0005 1.25707 15.1325 1.40602 15.2247C1.55497 15.317 1.72686 15.3658 1.90219 15.3656ZM10.1946 19.705C10.205 19.8275 10.2395 19.9468 10.2961 20.056C10.3527 20.1653 10.4304 20.2623 10.5246 20.3416C10.6189 20.4209 10.7279 20.4809 10.8454 20.5181C10.9629 20.5554 11.0866 20.5692 11.2094 20.5588C12.5864 20.4437 13.9258 20.0518 15.1469 19.4068C15.2559 19.3494 15.3525 19.2711 15.4311 19.1764C15.5098 19.0817 15.5689 18.9724 15.6052 18.8549C15.6415 18.7374 15.6541 18.6139 15.6425 18.4915C15.6309 18.3691 15.5952 18.2502 15.5374 18.1416C15.4798 18.0329 15.4013 17.9365 15.3064 17.8581C15.2115 17.7796 15.102 17.7206 14.9841 17.6843C14.8663 17.6481 14.7425 17.6353 14.6197 17.6468C14.497 17.6583 14.3777 17.6937 14.2687 17.7512C13.2706 18.2788 12.1756 18.5991 11.0499 18.6928C10.8019 18.7139 10.5725 18.8325 10.4121 19.0223C10.2517 19.2121 10.1735 19.4577 10.1946 19.705ZM6.42662 2.71724C6.55688 2.71724 6.68971 2.68986 6.81621 2.63182C7.84334 2.16245 8.95512 1.9053 10.0846 1.87586C10.3333 1.86876 10.5691 1.7635 10.7402 1.5832C10.9112 1.4029 11.0035 1.16228 10.9968 0.91418C10.9823 0.39718 10.5312 -0.0152023 10.0315 0.00445727C8.65049 0.0405758 7.29111 0.355294 6.03539 0.929627C5.84042 1.0185 5.68181 1.17123 5.58595 1.36245C5.49009 1.55366 5.46274 1.77183 5.50845 1.9807C5.55416 2.18956 5.67018 2.37653 5.83722 2.51052C6.00426 2.64452 6.21225 2.71747 6.42662 2.71724ZM13.3914 2.44388C14.4448 2.85236 15.4048 3.46847 16.2141 4.25537C16.3892 4.4256 16.6241 4.52077 16.8686 4.52054C17.0553 4.5203 17.2376 4.4646 17.3924 4.36055C17.5472 4.2565 17.6674 4.10882 17.7376 3.93636C17.8078 3.76389 17.825 3.57447 17.7868 3.39227C17.7486 3.21006 17.6568 3.04334 17.5232 2.91337C16.5342 1.95165 15.3609 1.1987 14.0734 0.699563C13.9582 0.6533 13.835 0.63028 13.7109 0.631835C13.5867 0.63339 13.4641 0.659489 13.3501 0.708622C13.2362 0.757755 13.1331 0.828945 13.0469 0.918071C12.9607 1.0072 12.8931 1.11249 12.848 1.22785C12.8029 1.34321 12.7812 1.46634 12.7841 1.59012C12.7871 1.71391 12.8146 1.83588 12.8652 1.94898C12.9157 2.06207 12.9882 2.16405 13.0786 2.249C13.1689 2.33395 13.2752 2.40019 13.3914 2.44388ZM18.6105 5.79139C18.497 5.83926 18.3941 5.90894 18.3076 5.99648C18.2211 6.08402 18.1527 6.18769 18.1064 6.30157C18.0601 6.41545 18.0368 6.53732 18.0377 6.66021C18.0386 6.78309 18.0638 6.9046 18.1118 7.01778C18.5517 8.05568 18.7774 9.17132 18.7755 10.2981C18.7755 10.8151 19.1954 11.2343 19.7143 11.2343C20.2332 11.2343 20.6531 10.8151 20.6531 10.2981C20.6555 8.92093 20.3792 7.55742 19.8408 6.2892C19.7928 6.17594 19.7229 6.07321 19.6351 5.98688C19.5473 5.90056 19.4433 5.83233 19.3291 5.7861C19.2148 5.73987 19.0926 5.71655 18.9693 5.71745C18.846 5.71836 18.7241 5.74349 18.6105 5.79139ZM19.7143 23.4045H0.938775C0.419867 23.4045 0 23.8237 0 24.3407V43.0641C0 43.5811 0.419867 44.0002 0.938775 44.0002H19.7143C20.2332 44.0002 20.6531 43.5811 20.6531 43.0641V24.3407C20.6531 23.8237 20.2332 23.4045 19.7143 23.4045ZM18.7755 42.1279H1.87755V25.2768H18.7755V42.1279ZM35.6735 23.4045C29.9793 23.4045 25.3469 28.024 25.3469 33.7024C25.3469 39.3807 29.9793 44.0002 35.6735 44.0002C41.3676 44.0002 46 39.3807 46 33.7024C46 28.024 41.3676 23.4045 35.6735 23.4045ZM35.6735 42.1279C31.0143 42.1279 27.2245 38.3481 27.2245 33.7024C27.2245 29.0566 31.0143 25.2768 35.6735 25.2768C40.3326 25.2768 44.1224 29.0566 44.1224 33.7024C44.1224 38.3481 40.3326 42.1279 35.6735 42.1279ZM45.0612 0.000244141H26.2857C25.7668 0.000244141 25.3469 0.419414 25.3469 0.936414V19.6598C25.3469 20.1768 25.7668 20.596 26.2857 20.596H45.0612C45.5801 20.596 46 20.1768 46 19.6598V0.936414C46 0.419414 45.5801 0.000244141 45.0612 0.000244141ZM44.1224 18.7236H27.2245V1.87258H44.1224V18.7236Z" fill="white"/>
  <path d="M35.6735 29.9577C33.6025 29.9577 31.9184 31.6377 31.9184 33.7024C31.9184 35.7671 33.6025 37.4471 35.6735 37.4471C37.7444 37.4471 39.4286 35.7671 39.4286 33.7024C39.4286 31.6377 37.7444 29.9577 35.6735 29.9577ZM35.6735 35.5747C34.6385 35.5747 33.7959 34.735 33.7959 33.7024C33.7959 32.6698 34.6385 31.83 35.6735 31.83C36.7085 31.83 37.551 32.6698 37.551 33.7024C37.551 34.735 36.7085 35.5747 35.6735 35.5747Z" fill="white"/>
</svg>