<svg xmlns="http://www.w3.org/2000/svg" width="49" height="52" viewBox="0 0 49 52" fill="none">
  <path d="M45.2354 3.61096C43.3124 3.61096 41.7486 5.17526 41.7486 7.09783C41.7486 9.0204 43.3124 10.5847 45.2354 10.5847C47.1585 10.5847 48.7223 9.0204 48.7223 7.09783C48.7223 5.17526 47.1585 3.61096 45.2354 3.61096ZM45.2354 8.84127C44.2744 8.84127 43.492 8.05934 43.492 7.09783C43.492 6.13633 44.2744 5.3544 45.2354 5.3544C46.1965 5.3544 46.9789 6.13633 46.9789 7.09783C46.9789 8.05934 46.1965 8.84127 45.2354 8.84127ZM39.5693 2.41867C39.7001 2.42061 39.8301 2.39652 39.9516 2.34778C40.073 2.29905 40.1836 2.22665 40.2768 2.13479C40.37 2.04294 40.4441 1.93346 40.4946 1.81273C40.5451 1.69201 40.5712 1.56243 40.5712 1.43156C40.5712 1.30068 40.5451 1.17111 40.4946 1.05038C40.4441 0.92965 40.37 0.820174 40.2768 0.728319C40.1836 0.636465 40.073 0.564065 39.9516 0.51533C39.8301 0.466596 39.7001 0.4425 39.5693 0.444445C39.31 0.448297 39.0627 0.553991 38.8807 0.738691C38.6987 0.923391 38.5967 1.17227 38.5967 1.43156C38.5967 1.69084 38.6987 1.93972 38.8807 2.12442C39.0627 2.30912 39.31 2.41482 39.5693 2.41867ZM32.5955 5.03382C32.7264 5.03577 32.8563 5.01167 32.9778 4.96294C33.0993 4.9142 33.2098 4.8418 33.3031 4.74995C33.3963 4.65809 33.4703 4.54862 33.5209 4.42789C33.5714 4.30716 33.5974 4.17759 33.5974 4.04671C33.5974 3.91583 33.5714 3.78626 33.5209 3.66553C33.4703 3.5448 33.3963 3.43533 33.3031 3.34347C33.2098 3.25162 33.0993 3.17922 32.9778 3.13048C32.8563 3.08175 32.7264 3.05765 32.5955 3.0596C32.3363 3.06345 32.0889 3.16914 31.907 3.35384C31.725 3.53854 31.623 3.78742 31.623 4.04671C31.623 4.306 31.725 4.55487 31.907 4.73957C32.0889 4.92428 32.3363 5.02997 32.5955 5.03382ZM44.3637 18.4302H40.0051V14.0716C40.0051 13.5902 39.6153 13.1999 39.1334 13.1999H33.9031V7.96955C33.9031 7.48814 33.5132 7.09783 33.0314 7.09783H1.64955C1.16771 7.09783 0.777832 7.48814 0.777832 7.96955V39.3514C0.777832 39.8328 1.16771 40.2231 1.64955 40.2231H6.87986V45.4534C6.87986 45.9348 7.26973 46.3251 7.75158 46.3251H12.1102V50.6837C12.1102 51.1651 12.5 51.5554 12.9819 51.5554H44.3637C44.8456 51.5554 45.2354 51.1651 45.2354 50.6837V19.3019C45.2354 18.8205 44.8456 18.4302 44.3637 18.4302ZM43.492 20.1736V48.5794L40.0051 45.0925V20.1736H43.492ZM38.2617 14.9433V43.3491L33.9031 38.9905V14.9433H38.2617ZM2.52127 8.84127H32.1597V38.4797H2.52127V8.84127ZM8.62329 40.2231H32.6705L37.0291 44.5817H8.62329V40.2231ZM13.8536 46.3251H38.7725L42.2594 49.812H13.8536V46.3251Z" fill="white"/>
  <path d="M27.2026 17.4968L23.5046 13.7983C23.4237 13.7173 23.3276 13.6531 23.2219 13.6093C23.1161 13.5654 23.0028 13.5429 22.8883 13.5429C22.7738 13.5429 22.6605 13.5654 22.5547 13.6093C22.449 13.6531 22.3529 13.7173 22.272 13.7983L17.3405 18.7294L12.4089 13.7983C12.082 13.4714 11.5032 13.4714 11.1763 13.7983L7.47829 17.4968C7.31487 17.6602 7.22306 17.8819 7.22306 18.1131C7.22306 18.3442 7.31487 18.5659 7.47829 18.7294L12.4098 23.6605L7.47829 28.5916C7.31487 28.755 7.22306 28.9767 7.22306 29.2079C7.22306 29.439 7.31487 29.6607 7.47829 29.8242L11.1763 33.5226C11.2572 33.6036 11.3533 33.6679 11.4591 33.7117C11.5648 33.7555 11.6782 33.7781 11.7926 33.7781C11.9071 33.7781 12.0205 33.7555 12.1262 33.7117C12.232 33.6679 12.328 33.6036 12.4089 33.5226L17.3405 28.5916L22.272 33.5226C22.3529 33.6036 22.449 33.6679 22.5547 33.7117C22.6605 33.7555 22.7738 33.7781 22.8883 33.7781C23.0028 33.7781 23.1161 33.7555 23.2219 33.7117C23.3276 33.6679 23.4237 33.6036 23.5046 33.5226L27.2026 29.8242C27.3661 29.6607 27.4579 29.439 27.4579 29.2079C27.4579 28.9767 27.3661 28.755 27.2026 28.5916L22.2711 23.6605L27.2026 18.7294C27.3661 18.5659 27.4579 18.3442 27.4579 18.1131C27.4579 17.8819 27.3661 17.6602 27.2026 17.4968ZM20.4222 23.0442C20.2588 23.2077 20.1671 23.4293 20.1671 23.6605C20.1671 23.8916 20.2588 24.1133 20.4222 24.2768L25.3537 29.2079L22.8885 31.6735L17.957 26.7424C17.7868 26.5722 17.5636 26.487 17.3407 26.487C17.1177 26.487 16.8946 26.5722 16.7244 26.7424L11.7929 31.6735L9.3272 29.2079L14.2587 24.2768C14.4221 24.1133 14.5139 23.8916 14.5139 23.6605C14.5139 23.4293 14.4221 23.2077 14.2587 23.0442L9.3272 18.1131L11.7924 15.6474L16.7239 20.5785C16.8874 20.7419 17.1091 20.8337 17.3403 20.8337C17.5714 20.8337 17.7931 20.7419 17.9566 20.5785L22.8881 15.6474L25.3533 18.1131L20.4222 23.0442Z" fill="white"/>
</svg>