<svg xmlns="http://www.w3.org/2000/svg" width="46" height="44" viewBox="0 0 46 44" fill="none">
  <path d="M3.46992 16.76C3.30703 16.9477 3.22547 17.1922 3.24316 17.4398C3.26085 17.6874 3.37633 17.9179 3.56426 18.0807C4.60677 18.985 5.82166 19.67 7.13607 20.0947C7.2323 20.1258 7.32946 20.1408 7.42568 20.1408C7.64954 20.1412 7.86618 20.0618 8.03653 19.917C8.20688 19.7721 8.31972 19.5714 8.35469 19.3509C8.38967 19.1304 8.34449 18.9047 8.22729 18.7145C8.11009 18.5243 7.92859 18.3821 7.71553 18.3136C6.64064 17.9662 5.64719 17.4058 4.79477 16.6662C4.60651 16.5036 4.36127 16.4222 4.11287 16.4398C3.86448 16.4574 3.63324 16.5726 3.46992 16.76ZM1.1671 8.03328C1.28317 8.0746 1.40627 8.09272 1.52936 8.0866C1.65245 8.08048 1.77313 8.05024 1.8845 7.9976C1.99587 7.94496 2.09574 7.87096 2.17843 7.77982C2.26111 7.68868 2.32498 7.58219 2.36639 7.46643C2.74593 6.40476 3.33621 5.4303 4.10195 4.60128C4.27032 4.41848 4.35898 4.17646 4.34841 3.92847C4.33785 3.68049 4.22893 3.44684 4.04562 3.27894C3.86231 3.11103 3.61962 3.02262 3.37095 3.03316C3.12227 3.04369 2.88797 3.1523 2.7196 3.33511C1.7835 4.34794 1.06226 5.53894 0.599143 6.83662C0.557453 6.95237 0.539078 7.07518 0.545072 7.19803C0.551065 7.32087 0.581311 7.44133 0.634073 7.5525C0.686835 7.66366 0.761077 7.76335 0.852544 7.84586C0.944012 7.92836 1.05091 7.99205 1.1671 8.03328ZM17.0014 16.9475C17.0968 17.0254 17.2067 17.0838 17.3247 17.1193C17.4428 17.1548 17.5667 17.1668 17.6893 17.1546C17.812 17.1423 17.9311 17.1061 18.0397 17.048C18.1484 16.9898 18.2445 16.9109 18.3225 16.8157C19.1981 15.7503 19.8497 14.52 20.2386 13.1981C20.3085 12.9599 20.2807 12.7037 20.1614 12.4859C20.0421 12.268 19.8411 12.1063 19.6023 12.0361C19.484 12.0012 19.3599 11.9899 19.2371 12.0029C19.1144 12.0159 18.9954 12.0529 18.8871 12.1119C18.7787 12.1708 18.6831 12.2505 18.6057 12.3464C18.5283 12.4423 18.4707 12.5524 18.4361 12.6706C18.1191 13.7525 17.5858 14.7592 16.8684 15.6301C16.7108 15.8224 16.6364 16.0692 16.6613 16.3163C16.6863 16.5633 16.8086 16.7904 17.0014 16.9475ZM1.90216 15.3654C2.06168 15.3653 2.21854 15.3246 2.35792 15.2473C2.49731 15.1699 2.61461 15.0584 2.69876 14.9232C2.7829 14.7881 2.83111 14.6338 2.83882 14.4749C2.84653 14.316 2.8135 14.1578 2.74284 14.0152C2.243 13.0052 1.95329 11.9048 1.89113 10.7802C1.86273 10.2646 1.41071 9.86466 0.901898 9.89789C0.778777 9.90477 0.658221 9.93577 0.547116 9.98912C0.436012 10.0425 0.336536 10.1171 0.25437 10.2088C0.172205 10.3005 0.10896 10.4075 0.0682485 10.5235C0.0275374 10.6396 0.0101583 10.7625 0.0171026 10.8853C0.0921425 12.2615 0.446738 13.6081 1.05938 14.8434C1.13696 15.0002 1.25704 15.1322 1.40599 15.2245C1.55494 15.3167 1.72683 15.3655 1.90216 15.3654ZM10.1946 19.7047C10.205 19.8273 10.2395 19.9466 10.2961 20.0558C10.3527 20.165 10.4304 20.262 10.5246 20.3413C10.6189 20.4206 10.7278 20.4806 10.8453 20.5179C10.9628 20.5551 11.0866 20.569 11.2094 20.5585C12.5864 20.4434 13.9258 20.0516 15.1469 19.4066C15.2559 19.3491 15.3525 19.2708 15.4311 19.1761C15.5097 19.0814 15.5689 18.9722 15.6052 18.8547C15.6414 18.7372 15.6541 18.6137 15.6425 18.4913C15.6309 18.3689 15.5952 18.25 15.5374 18.1413C15.4798 18.0326 15.4013 17.9363 15.3064 17.8578C15.2114 17.7794 15.1019 17.7203 14.9841 17.6841C14.8663 17.6478 14.7425 17.6351 14.6197 17.6465C14.497 17.658 14.3777 17.6935 14.2687 17.751C13.2706 18.2786 12.1756 18.5989 11.0498 18.6925C10.8018 18.7137 10.5724 18.8322 10.4121 19.0221C10.2517 19.2119 10.1735 19.4574 10.1946 19.7047ZM6.42659 2.717C6.55685 2.717 6.68968 2.68962 6.81618 2.63158C7.84331 2.16221 8.95509 1.90506 10.0845 1.87562C10.3333 1.86851 10.5691 1.76326 10.7401 1.58296C10.9112 1.40265 11.0035 1.16204 10.9968 0.913936C10.9822 0.396936 10.5312 -0.0154464 10.0315 0.00421313C8.65046 0.0403316 7.29108 0.35505 6.03536 0.929383C5.84038 1.01825 5.68178 1.17099 5.58592 1.3622C5.49006 1.55342 5.46271 1.77159 5.50842 1.98045C5.55413 2.18931 5.67015 2.37628 5.83719 2.51028C6.00422 2.64427 6.21222 2.71722 6.42659 2.717ZM13.3914 2.44364C14.4448 2.85212 15.4048 3.46822 16.214 4.25513C16.3891 4.42536 16.6241 4.52053 16.8686 4.5203C17.0553 4.52005 17.2376 4.46435 17.3924 4.3603C17.5472 4.25625 17.6673 4.10857 17.7376 3.93611C17.8078 3.76365 17.8249 3.57423 17.7867 3.39202C17.7485 3.20982 17.6568 3.04309 17.5232 2.91313C16.5342 1.95141 15.3609 1.19846 14.0734 0.699319C13.9582 0.653056 13.835 0.630036 13.7108 0.631591C13.5867 0.633146 13.4641 0.659245 13.3501 0.708378C13.2361 0.757511 13.1331 0.828701 13.0469 0.917827C12.9607 1.00695 12.8931 1.11224 12.848 1.2276C12.8029 1.34296 12.7812 1.4661 12.7841 1.58988C12.7871 1.71366 12.8146 1.83563 12.8651 1.94873C12.9157 2.06183 12.9882 2.16381 13.0785 2.24876C13.1689 2.33371 13.2752 2.39995 13.3914 2.44364ZM18.6105 5.79115C18.497 5.83901 18.394 5.9087 18.3076 5.99624C18.2211 6.08377 18.1527 6.18744 18.1064 6.30133C18.0601 6.41521 18.0367 6.53707 18.0376 6.65996C18.0386 6.78285 18.0638 6.90435 18.1118 7.01753C18.5517 8.05544 18.7774 9.17107 18.7755 10.2979C18.7755 10.8149 19.1953 11.234 19.7143 11.234C20.2332 11.234 20.653 10.8149 20.653 10.2979C20.6554 8.92069 20.3792 7.55717 19.8408 6.28896C19.7928 6.17569 19.7229 6.07296 19.6351 5.98664C19.5473 5.90031 19.4433 5.83209 19.3291 5.78586C19.2148 5.73963 19.0925 5.7163 18.9692 5.71721C18.8459 5.71812 18.724 5.74324 18.6105 5.79115ZM19.7143 23.4043H0.938745C0.419837 23.4043 -3.05176e-05 23.8234 -3.05176e-05 24.3404V43.0638C-3.05176e-05 43.5808 0.419837 44 0.938745 44H19.7143C20.2332 44 20.653 43.5808 20.653 43.0638V24.3404C20.653 23.8234 20.2332 23.4043 19.7143 23.4043ZM18.7755 42.1277H1.87752V25.2766H18.7755V42.1277ZM35.6734 23.4043C29.9793 23.4043 25.3469 28.0238 25.3469 33.7021C25.3469 39.3805 29.9793 44 35.6734 44C41.3676 44 46 39.3805 46 33.7021C46 28.0238 41.3676 23.4043 35.6734 23.4043ZM35.6734 42.1277C31.0143 42.1277 27.2245 38.3479 27.2245 33.7021C27.2245 29.0564 31.0143 25.2766 35.6734 25.2766C40.3326 25.2766 44.1224 29.0564 44.1224 33.7021C44.1224 38.3479 40.3326 42.1277 35.6734 42.1277ZM45.0612 0H26.2857C25.7668 0 25.3469 0.41917 25.3469 0.93617V19.6596C25.3469 20.1766 25.7668 20.5957 26.2857 20.5957H45.0612C45.5801 20.5957 46 20.1766 46 19.6596V0.93617C46 0.41917 45.5801 0 45.0612 0ZM44.1224 18.7234H27.2245V1.87234H44.1224V18.7234Z" fill="#0d6efd"/>
  <path d="M35.6734 29.9575C33.6025 29.9575 31.9183 31.6374 31.9183 33.7021C31.9183 35.7669 33.6025 37.4468 35.6734 37.4468C37.7444 37.4468 39.4285 35.7669 39.4285 33.7021C39.4285 31.6374 37.7444 29.9575 35.6734 29.9575ZM35.6734 35.5745C34.6384 35.5745 33.7959 34.7347 33.7959 33.7021C33.7959 32.6695 34.6384 31.8298 35.6734 31.8298C36.7084 31.8298 37.551 32.6695 37.551 33.7021C37.551 34.7347 36.7084 35.5745 35.6734 35.5745Z" fill="#0d6efd"/>
</svg>