<svg width="37" height="37" viewBox="0 0 37 37" fill="none" xmlns="http://www.w3.org/2000/svg">
<path d="M1.59226 1.06734C1.59226 0.853623 1.50838 0.64866 1.35908 0.49754C1.20978 0.34642 1.00728 0.261522 0.79613 0.261522C0.584983 0.261522 0.382484 0.34642 0.233181 0.49754C0.0838775 0.64866 0 0.853623 0 1.06734C0 1.28105 0.0838775 1.48602 0.233181 1.63714C0.382484 1.78826 0.584983 1.87316 0.79613 1.87316C1.00728 1.87316 1.20978 1.78826 1.35908 1.63714C1.50838 1.48602 1.59226 1.28105 1.59226 1.06734ZM12.0441 3.29605C12.2552 3.29605 12.4577 3.21116 12.607 3.06004C12.7563 2.90892 12.8402 2.70395 12.8402 2.49024C12.8402 2.27652 12.7563 2.07156 12.607 1.92044C12.4577 1.76932 12.2552 1.68442 12.0441 1.68442C11.8329 1.68442 11.6304 1.76932 11.4811 1.92044C11.3318 2.07156 11.2479 2.27652 11.2479 2.49024C11.2479 2.70395 11.3318 2.90892 11.4811 3.06004C11.6304 3.21116 11.8329 3.29605 12.0441 3.29605ZM33.1336 35.1269C32.9224 35.1269 32.7199 35.2118 32.5706 35.3629C32.4213 35.514 32.3375 35.719 32.3375 35.9327C32.3375 36.1464 32.4213 36.3514 32.5706 36.5025C32.7199 36.6536 32.9224 36.7385 33.1336 36.7385C33.3447 36.7385 33.5472 36.6536 33.6965 36.5025C33.8458 36.3514 33.9297 36.1464 33.9297 35.9327C33.9297 35.719 33.8458 35.514 33.6965 35.3629C33.5472 35.2118 33.3447 35.1269 33.1336 35.1269Z" fill="#0F142B"/>
<path d="M36.297 14.9423H22.2373V0.711538C22.2373 0.522827 22.1633 0.341844 22.0314 0.208405C21.8996 0.0749656 21.7208 0 21.5343 0H15.9105C15.724 0 15.5452 0.0749656 15.4134 0.208405C15.2815 0.341844 15.2075 0.522827 15.2075 0.711538V14.9423H1.14779C0.961348 14.9423 0.782542 15.0173 0.650706 15.1507C0.518871 15.2842 0.444807 15.4651 0.444807 15.6538V21.3462C0.444807 21.5349 0.518871 21.7158 0.650706 21.8493C0.782542 21.9827 0.961348 22.0577 1.14779 22.0577H15.2075V36.2885C15.2075 36.4772 15.2815 36.6582 15.4134 36.7916C15.5452 36.925 15.724 37 15.9105 37H21.5343C21.7208 37 21.8996 36.925 22.0314 36.7916C22.1633 36.6582 22.2373 36.4772 22.2373 36.2885V22.0577H36.297C36.4835 22.0577 36.6623 21.9827 36.7941 21.8493C36.9259 21.7158 37 21.5349 37 21.3462V15.6538C37 15.4651 36.9259 15.2842 36.7941 15.1507C36.6623 15.0173 36.4835 14.9423 36.297 14.9423ZM35.594 20.6346H22.2373V19.9231C22.2373 19.7344 22.1633 19.5534 22.0314 19.4199C21.8996 19.2865 21.7208 19.2115 21.5343 19.2115C21.3479 19.2115 21.1691 19.2865 21.0373 19.4199C20.9054 19.5534 20.8314 19.7344 20.8314 19.9231V35.5769H16.6135V19.9231C16.6135 19.7344 16.5394 19.5534 16.4076 19.4199C16.2757 19.2865 16.0969 19.2115 15.9105 19.2115C15.724 19.2115 15.5452 19.2865 15.4134 19.4199C15.2815 19.5534 15.2075 19.7344 15.2075 19.9231V20.6346H1.85078V16.3654H15.9105C16.0969 16.3654 16.2757 16.2904 16.4076 16.157C16.5394 16.0235 16.6135 15.8426 16.6135 15.6538V1.42308H20.8314V15.6538C20.8314 15.8426 20.9054 16.0235 21.0373 16.157C21.1691 16.2904 21.3479 16.3654 21.5343 16.3654H35.594V20.6346Z" fill="#0F142B"/>
<path d="M9.58361 13.5192C11.9094 13.5192 13.8015 11.6041 13.8015 9.25C13.8015 6.89588 11.9094 4.98077 9.58361 4.98077C7.25778 4.98077 5.3657 6.89588 5.3657 9.25C5.3657 11.6041 7.25761 13.5192 9.58361 13.5192ZM9.58361 6.40385C11.134 6.40385 12.3955 7.6807 12.3955 9.25C12.3955 10.8193 11.134 12.0962 9.58361 12.0962C8.03318 12.0962 6.77167 10.8193 6.77167 9.25C6.77167 7.6807 8.03318 6.40385 9.58361 6.40385ZM27.8612 13.5192C30.187 13.5192 32.0791 11.6041 32.0791 9.25C32.0791 6.89588 30.187 4.98077 27.8612 4.98077C25.5354 4.98077 23.6433 6.89588 23.6433 9.25C23.6433 11.6041 25.5352 13.5192 27.8612 13.5192ZM27.8612 6.40385C29.4116 6.40385 30.6731 7.6807 30.6731 9.25C30.6731 10.8193 29.4116 12.0962 27.8612 12.0962C26.3108 12.0962 25.0493 10.8193 25.0493 9.25C25.0493 7.6807 26.3108 6.40385 27.8612 6.40385ZM9.58361 23.4808C7.25778 23.4808 5.3657 25.3959 5.3657 27.75C5.3657 30.1041 7.25778 32.0192 9.58361 32.0192C11.9094 32.0192 13.8015 30.1041 13.8015 27.75C13.8015 25.3959 11.9094 23.4808 9.58361 23.4808ZM9.58361 30.5962C8.03318 30.5962 6.77167 29.3193 6.77167 27.75C6.77167 26.1807 8.03318 24.9038 9.58361 24.9038C11.134 24.9038 12.3955 26.1807 12.3955 27.75C12.3955 29.3193 11.134 30.5962 9.58361 30.5962ZM27.8612 23.4808C25.5354 23.4808 23.6433 25.3959 23.6433 27.75C23.6433 30.1041 25.5354 32.0192 27.8612 32.0192C30.187 32.0192 32.0791 30.1041 32.0791 27.75C32.0791 25.3959 30.187 23.4808 27.8612 23.4808ZM27.8612 30.5962C26.3108 30.5962 25.0493 29.3193 25.0493 27.75C25.0493 26.1807 26.3108 24.9038 27.8612 24.9038C29.4116 24.9038 30.6731 26.1807 30.6731 27.75C30.6731 29.3193 29.4116 30.5962 27.8612 30.5962Z" fill="#0F142B"/>
</svg>
