<svg xmlns="http://www.w3.org/2000/svg" width="40" height="40" viewBox="0 0 40 40" fill="none">
  <path d="M34.3786 6.97419C35.9284 6.97419 37.1893 5.71323 37.1893 4.16348C37.1893 2.61373 35.9284 1.35277 34.3786 1.35277C32.8289 1.35277 31.5679 2.61373 31.5679 4.16348C31.5679 5.71323 32.8289 6.97419 34.3786 6.97419ZM34.3786 2.75813C35.1537 2.75813 35.784 3.38843 35.784 4.16348C35.784 4.93853 35.1537 5.56883 34.3786 5.56883C33.6036 5.56883 32.9733 4.93853 32.9733 4.16348C32.9733 3.38843 33.6036 2.75813 34.3786 2.75813ZM10.1363 3.2024C10.3473 3.2024 10.5498 3.11855 10.699 2.96932C10.8482 2.82008 10.9321 2.61767 10.9321 2.40661C10.9321 2.19556 10.8482 1.99315 10.699 1.84391C10.5498 1.69467 10.3473 1.61083 10.1363 1.61083C9.92523 1.61083 9.72282 1.69467 9.57359 1.84391C9.42435 1.99315 9.34051 2.19556 9.34051 2.40661C9.34051 2.61767 9.42435 2.82008 9.57359 2.96932C9.72282 3.11855 9.92523 3.2024 10.1363 3.2024ZM4.51487 5.31043C4.72593 5.31043 4.92834 5.22658 5.07758 5.07735C5.22681 4.92811 5.31066 4.7257 5.31066 4.51464C5.31066 4.30359 5.22681 4.10118 5.07758 3.95194C4.92834 3.8027 4.72593 3.71886 4.51487 3.71886C4.30382 3.71886 4.10141 3.8027 3.95217 3.95194C3.80293 4.10118 3.71909 4.30359 3.71909 4.51464C3.71909 4.7257 3.80293 4.92811 3.95217 5.07735C4.10141 5.22658 4.30382 5.31043 4.51487 5.31043ZM39.2445 19.6224C39.2445 18.1778 38.6818 16.8196 37.6603 15.7984L23.4462 1.58431C22.4252 0.562966 21.0668 0.00012207 19.6222 0.00012207C18.1777 0.00012207 16.8194 0.56279 15.7983 1.58431L1.58419 15.7984C0.562844 16.8194 0 18.1778 0 19.6224C0 21.0669 0.562669 22.4252 1.58419 23.4463L14.2981 36.1602C11.5933 36.6033 11.1903 37.2761 11.1903 37.892C11.1903 39.7945 17.0872 40 19.6224 40C27.2328 40 28.0545 38.5256 28.0545 37.892C28.0545 37.307 27.6632 36.6076 24.9468 36.1599L37.6603 23.4463C38.6818 22.4252 39.2445 21.0667 39.2445 19.6224ZM15.5439 37.4057L15.7986 37.6604C16.1303 37.9923 16.5006 38.2702 16.895 38.5015C15.016 38.3703 13.7089 38.1207 13.0304 37.8951C13.4872 37.7412 14.2779 37.5531 15.5439 37.4057ZM26.2155 37.8946C25.5377 38.1203 24.2302 38.3701 22.35 38.5014C22.7444 38.27 23.1146 37.9921 23.4462 37.6603L23.7004 37.4061C24.964 37.5531 25.7589 37.7407 26.2155 37.8946ZM22.4526 36.6667C21.6967 37.4226 20.6915 37.8391 19.6224 37.8391C18.5533 37.8391 17.548 37.4226 16.7922 36.6667L2.57812 22.4526C1.82222 21.6967 1.4057 20.6915 1.4057 19.6224C1.4057 18.5532 1.82222 17.5479 2.57812 16.7922L16.7922 2.57807C17.5481 1.82216 18.5533 1.40565 19.6224 1.40565C20.6915 1.40565 21.6969 1.82216 22.4526 2.57807L36.6667 16.7922C37.4226 17.5481 37.8391 18.5532 37.8391 19.6224C37.8391 20.6915 37.4226 21.6968 36.6667 22.4526L22.4526 36.6667Z" fill="#0F142B"/>
  <path d="M24.5412 11.1902C22.4261 11.1902 20.5818 12.3655 19.6224 14.0962C18.6631 12.3655 16.8187 11.1902 14.7037 11.1902C11.604 11.1902 9.08227 13.712 9.08227 16.8117C9.08227 19.9113 11.604 22.4331 14.7037 22.4331C14.8922 22.4331 15.0786 22.4231 15.2623 22.4048C14.475 23.3724 14.001 24.6047 14.001 25.9465C14.001 29.0461 16.5227 31.5679 19.6224 31.5679C22.7221 31.5679 25.2438 29.0461 25.2438 25.9465C25.2438 24.6047 24.7699 23.3722 23.9825 22.4048C24.1665 22.4231 24.3527 22.4331 24.5412 22.4331C27.6408 22.4331 30.1626 19.9113 30.1626 16.8117C30.1626 13.712 27.6408 11.1902 24.5412 11.1902ZM10.4876 16.8117C10.4876 14.4869 12.3789 12.5956 14.7037 12.5956C17.0285 12.5956 18.9197 14.4869 18.9197 16.8117C18.9197 19.1365 17.0285 21.0277 14.7037 21.0277C12.3789 21.0277 10.4876 19.1365 10.4876 16.8117ZM19.6224 19.527C19.7839 19.8184 19.9708 20.0949 20.181 20.3533C19.9971 20.3351 19.8109 20.325 19.6224 20.325C19.4339 20.325 19.2475 20.3351 19.0638 20.3533C19.274 20.0949 19.461 19.8184 19.6224 19.527ZM19.6224 30.1625C17.2976 30.1625 15.4064 28.2713 15.4064 25.9465C15.4064 23.6217 17.2976 21.7304 19.6224 21.7304C21.9472 21.7304 23.8385 23.6217 23.8385 25.9465C23.8385 28.2713 21.9472 30.1625 19.6224 30.1625ZM24.5412 21.0277C22.2164 21.0277 20.3251 19.1365 20.3251 16.8117C20.3251 14.4869 22.2164 12.5956 24.5412 12.5956C26.866 12.5956 28.7572 14.4869 28.7572 16.8117C28.7572 19.1365 26.866 21.0277 24.5412 21.0277Z" fill="#0F142B"/>
</svg>