<svg xmlns="http://www.w3.org/2000/svg" version="1.1" xmlns:xlink="http://www.w3.org/1999/xlink" xmlns:svgjs="http://svgjs.com/svgjs" width="512" height="512" x="0" y="0" viewBox="0 0 24 24" style="enable-background:new 0 0 512 512" xml:space="preserve" class=""><g><g fill="#000"><path d="M5 7.75a.25.25 0 0 0-.25.25v13c0 .138.112.25.25.25h14a.25.25 0 0 0 .25-.25V8a.25.25 0 0 0-.25-.25zM3.25 8c0-.967.783-1.75 1.75-1.75h14c.967 0 1.75.783 1.75 1.75v13A1.75 1.75 0 0 1 19 22.75H5A1.75 1.75 0 0 1 3.25 21z" fill="#ffffff" data-original="#000000" opacity="1"></path><path d="M12 2.75A2.75 2.75 0 0 0 9.25 5.5V9a.75.75 0 0 1-1.5 0V5.5a4.25 4.25 0 0 1 8.5 0V9a.75.75 0 0 1-1.5 0V5.5A2.75 2.75 0 0 0 12 2.75z" fill="#ffffff" data-original="#000000" opacity="1"></path></g></g></svg>