<svg xmlns="http://www.w3.org/2000/svg" width="44" height="42" viewBox="0 0 44 42" fill="none">
  <path d="M31.7376 11.5861C30.1464 11.5861 28.8524 12.8855 28.8524 14.4826C28.8524 16.0797 30.1464 17.3792 31.7376 17.3792C33.3288 17.3792 34.6229 16.0797 34.6229 14.4826C34.6229 12.8855 33.3288 11.5861 31.7376 11.5861ZM31.7376 15.9309C30.9424 15.9309 30.295 15.2814 30.295 14.4826C30.295 13.6839 30.9424 13.0344 31.7376 13.0344C32.5329 13.0344 33.1802 13.6839 33.1802 14.4826C33.1802 15.2814 32.5329 15.9309 31.7376 15.9309ZM40.9174 17.5333C41.0499 18.4511 41.1161 19.3773 41.1154 20.3047L41.8367 20.314H41.1154C41.1154 20.7139 41.438 21.0191 41.8367 21.0191C42.2347 21.0191 42.5573 20.6759 42.5573 20.2759C42.5573 19.2862 42.4855 18.2934 42.3445 17.3242C42.3311 17.23 42.2993 17.1394 42.2508 17.0576C42.2024 16.9758 42.1384 16.9044 42.0624 16.8476C41.9864 16.7907 41.8999 16.7495 41.808 16.7263C41.7161 16.7031 41.6205 16.6984 41.5267 16.7125C41.433 16.7261 41.3429 16.7582 41.2615 16.8069C41.1802 16.8555 41.1092 16.9198 41.0526 16.9961C40.996 17.0723 40.9549 17.159 40.9317 17.2512C40.9085 17.3433 40.9037 17.4392 40.9174 17.5333ZM39.3136 12.215C39.7107 13.0556 40.0451 13.9248 40.3138 14.8152C40.3587 14.9639 40.45 15.0943 40.5743 15.1869C40.6986 15.2796 40.8493 15.3296 41.0041 15.3297C41.1168 15.3297 41.2279 15.3032 41.3285 15.2524C41.4291 15.2016 41.5165 15.1277 41.5836 15.0369C41.6507 14.9461 41.6957 14.8407 41.7149 14.7293C41.7342 14.6178 41.7272 14.5034 41.6944 14.3952C41.4045 13.4361 41.0443 12.4998 40.6166 11.594C40.5761 11.5081 40.519 11.431 40.4488 11.3672C40.3785 11.3034 40.2964 11.2542 40.2072 11.2222C40.1179 11.1903 40.0233 11.1764 39.9287 11.1812C39.8341 11.1861 39.7414 11.2096 39.6558 11.2504C39.5702 11.2912 39.4935 11.3484 39.4299 11.419C39.3664 11.4895 39.3173 11.5719 39.2855 11.6615C39.2538 11.7511 39.2399 11.8461 39.2447 11.941C39.2495 12.036 39.2729 12.1291 39.3136 12.215ZM40.9062 23.0921C40.7691 24.0118 40.5638 24.9198 40.292 25.8088C40.2589 25.9171 40.2516 26.0317 40.2706 26.1433C40.2896 26.255 40.3344 26.3607 40.4015 26.4518C40.4686 26.5429 40.556 26.617 40.6567 26.6681C40.7575 26.7191 40.8687 26.7457 40.9816 26.7458C41.136 26.7457 41.2862 26.6959 41.4103 26.6038C41.5344 26.5116 41.6259 26.382 41.6712 26.2338C41.9638 25.2759 42.1852 24.2974 42.3333 23.3065C42.3615 23.1165 42.3134 22.923 42.1995 22.7686C42.0857 22.6142 41.9154 22.5114 41.7262 22.483C41.3345 22.4277 40.9654 22.6971 40.9062 23.0921ZM37.9413 9.79274C37.994 9.8718 38.0617 9.93963 38.1406 9.99235C38.2195 10.0451 38.308 10.0817 38.401 10.1C38.494 10.1183 38.5896 10.118 38.6825 10.0992C38.7754 10.0803 38.8637 10.0432 38.9423 9.99007C39.0209 9.93704 39.0884 9.86899 39.1408 9.78979C39.1932 9.71059 39.2296 9.62179 39.2479 9.52848C39.2661 9.43516 39.2659 9.33915 39.2472 9.24592C39.2285 9.1527 39.1916 9.06408 39.1388 8.98514C38.5823 8.15405 37.9657 7.36509 37.2941 6.62462C37.2303 6.55433 37.1534 6.49732 37.0677 6.45687C36.982 6.41642 36.8893 6.39332 36.7947 6.38888C36.7001 6.38444 36.6056 6.39876 36.5165 6.43101C36.4274 6.46326 36.3456 6.51281 36.2756 6.57683C36.2054 6.64077 36.1485 6.71797 36.1082 6.80402C36.0678 6.89006 36.0447 6.98326 36.0402 7.07827C36.0358 7.17328 36.05 7.26824 36.0822 7.35771C36.1143 7.44718 36.1638 7.52941 36.2276 7.59968C36.8515 8.28763 37.4242 9.02062 37.9413 9.79274ZM31.9398 4.08542C32.7353 4.56168 33.495 5.09584 34.2128 5.6836C34.3466 5.79313 34.508 5.84653 34.6678 5.84653C34.8769 5.84653 35.0847 5.75565 35.2271 5.58023C35.2871 5.50658 35.3321 5.42178 35.3594 5.33068C35.3867 5.23957 35.3958 5.14396 35.3862 5.04931C35.3767 4.95466 35.3487 4.86282 35.3037 4.77907C35.2588 4.69531 35.1978 4.62127 35.1244 4.56118C34.3519 3.92866 33.5342 3.35384 32.678 2.84135C32.5966 2.79096 32.506 2.75732 32.4115 2.74241C32.317 2.72749 32.2206 2.73158 32.1277 2.75446C32.0348 2.77733 31.9473 2.81852 31.8704 2.87563C31.7936 2.93275 31.7287 3.00464 31.6798 3.08713C31.6308 3.16962 31.5987 3.26107 31.5853 3.35614C31.5719 3.45121 31.5774 3.54801 31.6016 3.64091C31.6258 3.73381 31.6682 3.82095 31.7262 3.89726C31.7843 3.97358 31.8569 4.03754 31.9398 4.08542ZM26.8195 1.98342C27.7191 2.20403 28.6011 2.49146 29.4583 2.84334C29.634 2.9093 29.8284 2.90399 30.0003 2.82852C30.1722 2.75305 30.3081 2.61336 30.3791 2.43904C30.4502 2.26472 30.4509 2.06948 30.381 1.89467C30.3111 1.71987 30.1762 1.57925 30.0048 1.50259C29.0812 1.12383 28.1309 0.814194 27.1618 0.576235C26.7737 0.482821 26.3842 0.719434 26.2897 1.10812C26.1952 1.4968 26.4327 1.88838 26.8195 1.98342ZM2.92947 21.7912C2.73948 21.813 2.56589 21.9097 2.44686 22.0599C2.32783 22.2102 2.27311 22.4017 2.29471 22.5925C2.40717 23.5882 2.59343 24.5742 2.85192 25.5421C2.89306 25.6959 2.9835 25.8318 3.10929 25.9288C3.23507 26.0258 3.38919 26.0786 3.54781 26.0789C3.6111 26.0788 3.6741 26.0704 3.73517 26.0537C3.82672 26.0291 3.91254 25.9867 3.98774 25.9288C4.06293 25.8709 4.12602 25.7987 4.17338 25.7163C4.22075 25.6339 4.25147 25.543 4.26378 25.4486C4.27609 25.3543 4.26976 25.2585 4.24514 25.1666C4.00545 24.2682 3.8324 23.3532 3.72742 22.4292C3.68324 22.0316 3.33592 21.7427 2.92947 21.7912ZM2.87104 20.3426C2.87951 20.3429 2.88799 20.3429 2.89647 20.3429C3.08337 20.3429 3.26293 20.2699 3.39724 20.1394C3.53156 20.0089 3.61012 19.8311 3.61634 19.6436C3.64807 18.7102 3.74798 17.7777 3.91225 16.8721C3.92931 16.7786 3.92784 16.6826 3.90794 16.5896C3.88803 16.4966 3.85007 16.4085 3.79624 16.3303C3.7424 16.252 3.67373 16.1852 3.59416 16.1336C3.51459 16.082 3.42568 16.0467 3.3325 16.0296C2.94299 15.9599 2.56538 16.2188 2.49361 16.612C2.31515 17.5969 2.20872 18.5936 2.17515 19.5942C2.17185 19.6892 2.18724 19.7839 2.22043 19.873C2.25362 19.962 2.30397 20.0437 2.3686 20.1132C2.43323 20.1827 2.51087 20.2387 2.59708 20.2781C2.68329 20.3174 2.77638 20.3393 2.87104 20.3426ZM6.5748 9.54509C6.68887 9.54523 6.80134 9.5182 6.90298 9.46621C7.00461 9.41422 7.0925 9.33875 7.15942 9.24601C7.70332 8.49305 8.30132 7.78101 8.94864 7.11559C9.01492 7.04761 9.06721 6.96718 9.10252 6.87891C9.13784 6.79063 9.15548 6.69624 9.15444 6.60112C9.1534 6.506 9.1337 6.41201 9.09647 6.32453C9.05924 6.23706 9.00521 6.1578 8.93746 6.09129C8.80053 5.95733 8.61629 5.88333 8.42511 5.8855C8.23392 5.88767 8.0514 5.96584 7.91752 6.10288C7.22052 6.81886 6.57682 7.58525 5.99162 8.39587C5.91368 8.50391 5.86696 8.63145 5.85663 8.76444C5.8463 8.89743 5.87275 9.0307 5.93306 9.14956C5.99338 9.26842 6.08522 9.36825 6.19846 9.43804C6.31169 9.50783 6.44193 9.54487 6.5748 9.54509ZM3.69586 14.6284C3.87693 14.6904 4.07514 14.6778 4.24696 14.5933C4.41878 14.5088 4.55017 14.3593 4.61229 14.1776C4.91091 13.3014 5.27788 12.4397 5.70345 11.6167C5.74916 11.5321 5.77761 11.4392 5.78715 11.3434C5.79668 11.2476 5.78711 11.1509 5.75899 11.0589C5.73088 10.9669 5.68478 10.8814 5.62339 10.8075C5.562 10.7336 5.48655 10.6727 5.40145 10.6284C5.31635 10.5841 5.22331 10.5572 5.12776 10.5494C5.03221 10.5416 4.93607 10.553 4.84495 10.5829C4.75383 10.6128 4.66957 10.6607 4.59708 10.7237C4.52459 10.7866 4.46533 10.8635 4.42276 10.9497C3.9636 11.839 3.57061 12.7612 3.24702 13.7087C3.18516 13.8904 3.19768 14.0894 3.28185 14.2618C3.36601 14.4342 3.51492 14.5661 3.69586 14.6284ZM15.6356 2.64456C15.718 2.64456 15.8026 2.63008 15.8842 2.59967C16.7543 2.2789 17.6469 2.02348 18.5547 1.83552C18.742 1.7967 18.9063 1.68478 19.0115 1.52437C19.1166 1.36396 19.154 1.16819 19.1154 0.980126C19.0965 0.886803 19.0595 0.798142 19.0064 0.719251C18.9533 0.640359 18.8851 0.572794 18.8059 0.520446C18.7267 0.468099 18.6379 0.432002 18.5447 0.414236C18.4515 0.396469 18.3558 0.397383 18.2629 0.416925C17.2853 0.619615 16.324 0.894881 15.3869 1.24045C15.2277 1.29898 15.0942 1.41191 15.0097 1.55943C14.9252 1.70695 14.8951 1.87964 14.9248 2.04719C14.9545 2.21473 15.042 2.36643 15.1719 2.47567C15.3019 2.58491 15.4661 2.64471 15.6356 2.64456ZM21.306 1.47707C22.2314 1.42653 23.1591 1.44305 24.0821 1.52649C24.2703 1.53945 24.4561 1.47795 24.5996 1.35514C24.7432 1.23233 24.8331 1.05798 24.8502 0.869418C24.8674 0.680852 24.8103 0.493054 24.6912 0.346225C24.5721 0.199397 24.4005 0.105207 24.2131 0.0838199C23.2203 -0.00589127 22.2223 -0.0236189 21.227 0.030776C21.1325 0.0359824 21.0399 0.0598309 20.9545 0.10096C20.8692 0.142089 20.7927 0.199693 20.7295 0.270483C20.6664 0.341273 20.6177 0.423862 20.5863 0.513536C20.5549 0.603209 20.5414 0.698211 20.5466 0.793116C20.5679 1.19284 20.9073 1.49155 21.306 1.47707ZM10.5941 5.41911C10.7514 5.41906 10.9043 5.3673 11.0294 5.27175C11.7676 4.7095 12.546 4.20251 13.3582 3.75485C13.5215 3.66023 13.6415 3.50516 13.6924 3.32285C13.7432 3.14055 13.721 2.94549 13.6303 2.77945C13.5397 2.61342 13.388 2.4896 13.2075 2.43451C13.0271 2.37942 12.8324 2.39744 12.665 2.48471C11.7903 2.96669 10.9522 3.51266 10.1574 4.11819C10.0368 4.20979 9.94799 4.33712 9.90346 4.48217C9.85893 4.62723 9.86096 4.78266 9.90925 4.9265C9.95754 5.07034 10.0497 5.19529 10.1726 5.28369C10.2955 5.3721 10.4429 5.41947 10.5941 5.41911ZM43.9238 40.952L39.1987 31.4647C39.7128 30.6858 40.1813 29.8701 40.5827 29.0301C40.6258 28.9441 40.6514 28.8504 40.658 28.7544C40.6647 28.6583 40.6521 28.562 40.6212 28.4709C40.5903 28.3798 40.5416 28.2958 40.4779 28.2238C40.4143 28.1518 40.337 28.0933 40.2506 28.0516C40.1641 28.01 40.0703 27.986 39.9745 27.9812C39.8788 27.9764 39.783 27.9908 39.6929 28.0236C39.6027 28.0563 39.52 28.1068 39.4495 28.172C39.379 28.2373 39.3222 28.316 39.2824 28.4035C39.0303 28.9305 38.7439 29.4432 38.4428 29.947L34.1861 21.4002C33.941 20.9094 33.1407 20.9094 32.8957 21.4002L29.4476 28.3233C29.3621 28.4951 29.348 28.694 29.4085 28.8762C29.469 29.0584 29.5991 29.2091 29.7702 29.2949C29.9414 29.3808 30.1395 29.395 30.321 29.3342C30.5025 29.2735 30.6525 29.1429 30.7381 28.9711L33.5409 23.3431L42.1114 40.5517H32.2553L31.525 38.3793H33.1802C33.5789 38.3793 33.9016 38.0551 33.9016 37.6552C33.9016 37.2552 33.5789 36.931 33.1802 36.931H31.0381L22.6832 12.0787C22.6348 11.9352 22.5429 11.8106 22.4203 11.7224C22.2978 11.6341 22.1507 11.5866 21.9999 11.5866C21.8491 11.5866 21.702 11.6341 21.5795 11.7224C21.4569 11.8106 21.365 11.9352 21.3166 12.0787L15.3303 29.8857L11.1041 21.4002C10.859 20.9094 10.0587 20.9094 9.81367 21.4002L5.89226 29.2738C5.62934 28.7895 5.38049 28.298 5.16247 27.7958C5.08595 27.6198 4.94291 27.4815 4.76482 27.4113C4.58674 27.3412 4.38819 27.345 4.21286 27.4218C4.12598 27.4597 4.04741 27.5145 3.98163 27.583C3.91585 27.6515 3.86415 27.7323 3.82948 27.8208C3.79482 27.9093 3.77787 28.0039 3.7796 28.099C3.78133 28.1941 3.80172 28.2879 3.83958 28.3751C4.20952 29.2215 4.63638 30.0416 5.11721 30.8298L0.0759529 40.952C0.021117 41.0624 -0.0047265 41.1851 0.000871273 41.3083C0.00646904 41.4316 0.0433227 41.5514 0.10794 41.6563C0.172558 41.7613 0.262798 41.8479 0.370113 41.9081C0.477428 41.9682 0.598262 41.9999 0.721167 42H43.2786C43.4015 41.9999 43.5224 41.9684 43.6297 41.9083C43.7371 41.8482 43.8274 41.7617 43.8921 41.6568C43.9569 41.5518 43.9938 41.4319 43.9994 41.3085C44.0049 41.1852 43.9789 41.0624 43.9238 40.952ZM30.733 40.5517H13.2668L13.9971 38.3793H30.0027L30.733 40.5517ZM21.9999 14.5746L29.5158 36.931H14.484L21.9999 14.5746ZM10.4589 23.3431L14.6802 31.8191L12.9617 36.931H10.8195C10.4208 36.931 10.0982 37.2552 10.0982 37.6552C10.0982 38.0551 10.4208 38.3793 10.8195 38.3793H12.4748L11.7444 40.5517H1.88843L10.4589 23.3431ZM26.3278 9.87149C26.5444 9.87149 26.7522 9.78509 26.9054 9.63129C27.0586 9.4775 27.1447 9.2689 27.1447 9.0514C27.1447 8.8339 27.0586 8.62531 26.9054 8.47151C26.7522 8.31771 26.5444 8.23131 26.3278 8.23131C26.1111 8.23131 25.9033 8.31771 25.7501 8.47151C25.5969 8.62531 25.5109 8.8339 25.5109 9.0514C25.5109 9.2689 25.5969 9.4775 25.7501 9.63129C25.9033 9.78509 26.1111 9.87149 26.3278 9.87149Z" fill="#0F142B"/>
</svg>