<svg xmlns="http://www.w3.org/2000/svg" width="47" height="50" viewBox="0 0 47 50" fill="none">
  <path d="M5.42308 7.27273C7.41696 7.27273 9.03846 5.64136 9.03846 3.63636C9.03846 1.63136 7.41696 0 5.42308 0C3.42919 0 1.80769 1.63136 1.80769 3.63636C1.80769 5.64136 3.42919 7.27273 5.42308 7.27273ZM5.42308 1.81818C6.41957 1.81818 7.23077 2.63364 7.23077 3.63636C7.23077 4.63909 6.41957 5.45455 5.42308 5.45455C4.42659 5.45455 3.61538 4.63909 3.61538 3.63636C3.61538 2.63364 4.42659 1.81818 5.42308 1.81818ZM26.2167 9.30568C27.3478 9.48651 28.4578 9.78125 29.5302 10.1855C29.6353 10.225 29.7422 10.2441 29.8479 10.2441C30.0319 10.2438 30.2114 10.1872 30.3626 10.0818C30.5138 9.97645 30.6296 9.82725 30.6944 9.65409C30.7784 9.42834 30.7699 9.17829 30.6708 8.95884C30.5716 8.73939 30.39 8.56848 30.1656 8.48364C28.9795 8.03646 27.7517 7.7102 26.5008 7.50977C26.3835 7.49042 26.2636 7.49464 26.1479 7.52219C26.0323 7.54974 25.9232 7.60008 25.827 7.67028C25.7308 7.74049 25.6494 7.82917 25.5875 7.93121C25.5256 8.03326 25.4844 8.14663 25.4663 8.26477C25.4287 8.50288 25.4866 8.74627 25.6273 8.94145C25.768 9.13664 25.98 9.26764 26.2167 9.30568ZM32.6029 11.7143C33.5737 12.3263 34.4817 13.0338 35.3135 13.8264C35.481 13.9868 35.7036 14.0762 35.9349 14.0759C36.1158 14.0761 36.2926 14.0217 36.4424 13.9197C36.5921 13.8177 36.708 13.6728 36.775 13.5037C36.8419 13.3347 36.8569 13.1494 36.8179 12.9717C36.7789 12.794 36.6878 12.6322 36.5563 12.5073C35.6381 11.6313 34.6354 10.8494 33.5632 10.1732C33.3597 10.0458 33.1144 10.0046 32.8809 10.0586C32.6473 10.1126 32.4445 10.2574 32.3168 10.4614C32.1897 10.6657 32.1484 10.9124 32.202 11.1474C32.2557 11.3823 32.3998 11.5862 32.6029 11.7143ZM37.7726 15.17C37.6756 15.2387 37.593 15.326 37.5296 15.4269C37.4661 15.5277 37.423 15.6402 37.4028 15.7577C37.3825 15.8753 37.3855 15.9958 37.4116 16.1122C37.4376 16.2287 37.4862 16.3388 37.5546 16.4364C38.214 17.3786 38.7778 18.3849 39.2378 19.4402C39.2854 19.5496 39.3539 19.6485 39.4395 19.7312C39.5251 19.8139 39.626 19.8789 39.7366 19.9224C39.8471 19.9658 39.9651 19.987 40.0838 19.9846C40.2025 19.9823 40.3195 19.9564 40.4282 19.9085C40.537 19.8607 40.6353 19.7917 40.7175 19.7056C40.7998 19.6195 40.8644 19.518 40.9076 19.4068C40.9508 19.2956 40.9719 19.177 40.9695 19.0576C40.9671 18.9382 40.9414 18.8205 40.8938 18.7111C40.3854 17.5441 39.7618 16.4313 39.0324 15.3895C38.964 15.2919 38.8772 15.2087 38.7769 15.1448C38.6766 15.0809 38.5648 15.0375 38.4478 15.0171C38.3307 14.9967 38.2109 14.9997 38.0951 15.0259C37.9792 15.0522 37.8697 15.1011 37.7726 15.17ZM19.183 9.61205C19.2544 9.61205 19.3269 9.60364 19.3993 9.58591C20.5119 9.31256 21.6488 9.15154 22.7932 9.10523C22.9118 9.10049 23.0283 9.07229 23.136 9.02225C23.2438 8.97221 23.3407 8.90131 23.4212 8.81359C23.5017 8.72587 23.5642 8.62306 23.6052 8.51104C23.6461 8.39901 23.6648 8.27995 23.66 8.16068C23.6396 7.65818 23.2072 7.25864 22.7209 7.28886C21.4557 7.33996 20.1988 7.51796 18.9688 7.82023C18.736 7.87762 18.5354 8.02563 18.4111 8.23173C18.2868 8.43783 18.2489 8.68515 18.3058 8.91932C18.354 9.11681 18.4665 9.29236 18.6256 9.41793C18.7846 9.54351 18.9808 9.61185 19.183 9.61205ZM12.6918 12.698C12.8798 12.698 13.0696 12.6393 13.2312 12.5173C14.1499 11.8279 15.1345 11.2321 16.1705 10.7386C16.3871 10.6355 16.5541 10.45 16.6349 10.2231C16.7156 9.99609 16.7035 9.74616 16.6012 9.52818C16.5505 9.42016 16.4791 9.32326 16.3911 9.24303C16.3031 9.16279 16.2003 9.1008 16.0885 9.06061C15.9766 9.02041 15.858 9.0028 15.7394 9.00878C15.6208 9.01476 15.5045 9.04421 15.3972 9.09545C14.2529 9.64038 13.1654 10.2986 12.1509 11.0605C11.9984 11.1746 11.8857 11.3341 11.8286 11.5164C11.7715 11.6987 11.7731 11.8945 11.833 12.0758C11.8929 12.2572 12.0081 12.4149 12.1623 12.5266C12.3165 12.6383 12.5018 12.6983 12.6918 12.698ZM6.68801 19.6084C6.57573 19.5695 6.45693 19.5533 6.3384 19.5606C6.21987 19.568 6.10395 19.5988 5.99727 19.6512C5.8906 19.7037 5.79527 19.7769 5.71675 19.8665C5.63822 19.9561 5.57805 20.0604 5.53967 20.1734C5.12981 21.3786 4.84124 22.6221 4.67831 23.8852C4.66196 24.0135 4.67298 24.1438 4.71063 24.2674C4.74827 24.391 4.81168 24.5052 4.89662 24.6022C4.98157 24.6993 5.0861 24.777 5.20326 24.8302C5.32041 24.8835 5.4475 24.911 5.57605 24.9109C5.7955 24.9105 6.00733 24.83 6.17214 24.6842C6.33694 24.5385 6.4435 24.3375 6.47199 24.1186C6.61862 22.9765 6.87942 21.8522 7.25043 20.7627C7.32794 20.5346 7.31224 20.2849 7.20678 20.0685C7.10131 19.852 6.91472 19.6865 6.68801 19.6084ZM7.44272 17.9536C7.54507 18.0142 7.65829 18.0539 7.77589 18.0704C7.8935 18.0869 8.01319 18.0799 8.12811 18.0498C8.24303 18.0198 8.35094 17.9672 8.44565 17.8952C8.54037 17.8231 8.62003 17.733 8.68009 17.63C9.261 16.6368 9.93836 15.7039 10.7022 14.845C10.7827 14.7563 10.8449 14.6524 10.8852 14.5394C10.9255 14.4263 10.9432 14.3064 10.9371 14.1864C10.9311 14.0665 10.9015 13.9489 10.85 13.8406C10.7986 13.7322 10.7263 13.6352 10.6373 13.5551C10.5484 13.4749 10.4445 13.4134 10.3318 13.3739C10.219 13.3344 10.0996 13.3177 9.9804 13.3249C9.86122 13.3321 9.74463 13.3629 9.63737 13.4157C9.5301 13.4684 9.4343 13.5421 9.35548 13.6323C8.51143 14.5811 7.76306 15.6118 7.1214 16.7093C7.00009 16.9172 6.96579 17.165 7.02603 17.3984C7.08628 17.6317 7.23615 17.8314 7.44272 17.9536Z" fill="#0F142B"/>
  <path d="M46.0962 25.4545H42.4376C42.3884 24.4045 42.2754 23.3582 42.0571 22.3389C42.0028 22.1072 41.8604 21.9062 41.6604 21.779C41.4604 21.6519 41.2188 21.6086 40.9875 21.6586C40.7562 21.7086 40.5536 21.8478 40.4232 22.0464C40.2928 22.245 40.245 22.4871 40.2901 22.7207C40.4812 23.6152 40.5809 24.533 40.6288 25.4545H34.228C33.7284 25.4545 33.3241 25.8616 33.3241 26.3636C33.3241 26.8657 33.7284 27.2727 34.228 27.2727H45.1738C44.6981 38.8832 35.1583 48.1818 23.5 48.1818C11.8417 48.1818 2.3021 38.8832 1.82622 27.2727H16.332C16.7792 30.8545 19.8198 33.6364 23.5 33.6364C27.4871 33.6364 30.7308 30.3739 30.7308 26.3636C30.7308 22.3534 27.4871 19.0909 23.5 19.0909C19.8198 19.0909 16.779 21.8727 16.332 25.4545H0.903846C0.404245 25.4545 0 25.8616 0 26.3636C0 39.3968 10.5416 50 23.5 50C36.4584 50 47 39.3968 47 26.3636C47 25.8616 46.5958 25.4545 46.0962 25.4545ZM23.5 20.9091C26.4904 20.9091 28.9231 23.3559 28.9231 26.3636C28.9231 29.3714 26.4904 31.8182 23.5 31.8182C20.5096 31.8182 18.0769 29.3714 18.0769 26.3636C18.0769 23.3559 20.5096 20.9091 23.5 20.9091ZM37.5096 4.21113C37.7811 4.21113 38.0415 4.10266 38.2334 3.90959C38.4254 3.71651 38.5332 3.45464 38.5332 3.18159C38.5332 2.90854 38.4254 2.64667 38.2334 2.45359C38.0415 2.26051 37.7811 2.15204 37.5096 2.15204C37.2381 2.15204 36.9778 2.26051 36.7858 2.45359C36.5938 2.64667 36.486 2.90854 36.486 3.18159C36.486 3.45464 36.5938 3.71651 36.7858 3.90959C36.9778 4.10266 37.2381 4.21113 37.5096 4.21113ZM44.7404 3.30204C45.0119 3.30204 45.2722 3.19357 45.4642 3.0005C45.6561 2.80742 45.764 2.54555 45.764 2.2725C45.764 1.99944 45.6561 1.73758 45.4642 1.5445C45.2722 1.35142 45.0119 1.24295 44.7404 1.24295C44.4689 1.24295 44.2085 1.35142 44.0166 1.5445C43.8246 1.73758 43.7168 1.99944 43.7168 2.2725C43.7168 2.54555 43.8246 2.80742 44.0166 3.0005C44.2085 3.19357 44.4689 3.30204 44.7404 3.30204ZM44.6206 19.5455C44.6206 19.6807 44.6471 19.8145 44.6986 19.9394C44.75 20.0643 44.8255 20.1778 44.9205 20.2734C45.0156 20.369 45.1284 20.4448 45.2526 20.4966C45.3768 20.5483 45.5099 20.5749 45.6443 20.5749C45.7788 20.5749 45.9119 20.5482 46.0361 20.4965C46.1602 20.4447 46.2731 20.3689 46.3681 20.2733C46.4632 20.1776 46.5385 20.0641 46.59 19.9392C46.6414 19.8143 46.6679 19.6804 46.6678 19.5452C46.6678 19.2722 46.5599 19.0103 46.3679 18.8173C46.176 18.6242 45.9156 18.5158 45.6441 18.5158C45.3726 18.5158 45.1123 18.6243 44.9204 18.8174C44.7284 19.0105 44.6206 19.2724 44.6206 19.5455Z" fill="#0F142B"/>
</svg>