<svg xmlns="http://www.w3.org/2000/svg" width="39" height="43" viewBox="0 0 39 43" fill="none">
  <path d="M35.8163 1.59191C34.0605 1.59191 32.6327 3.02018 32.6327 4.77558C32.6327 6.53098 34.0605 7.95926 35.8163 7.95926C37.5721 7.95926 39 6.53098 39 4.77558C39 3.02018 37.5721 1.59191 35.8163 1.59191ZM35.8163 6.36742C34.9388 6.36742 34.2245 5.65348 34.2245 4.77558C34.2245 3.89768 34.9388 3.18375 35.8163 3.18375C36.6938 3.18375 37.4082 3.89768 37.4082 4.77558C37.4082 5.65348 36.6938 6.36742 35.8163 6.36742ZM29.051 5.2788C29.2901 5.2788 29.5194 5.18384 29.6884 5.01479C29.8574 4.84575 29.9524 4.61648 29.9524 4.37742C29.9524 4.13836 29.8574 3.9091 29.6884 3.74005C29.5194 3.57101 29.2901 3.47605 29.051 3.47605C28.812 3.47605 28.5827 3.57101 28.4136 3.74005C28.2446 3.9091 28.1496 4.13836 28.1496 4.37742C28.1496 4.61648 28.2446 4.84575 28.4136 5.01479C28.5827 5.18384 28.812 5.2788 29.051 5.2788ZM37.1157 10.745C37.1157 10.5059 37.0207 10.2766 36.8517 10.1076C36.6826 9.93856 36.4533 9.84359 36.2143 9.84359C35.9752 9.84359 35.746 9.93856 35.5769 10.1076C35.4079 10.2766 35.3129 10.5059 35.3129 10.745C35.3129 10.984 35.4079 11.2133 35.5769 11.3823C35.746 11.5514 35.9752 11.6463 36.2143 11.6463C36.4533 11.6463 36.6826 11.5514 36.8517 11.3823C37.0207 11.2133 37.1157 10.984 37.1157 10.745ZM37.0102 20.8008L1.19388 0.106924C1.07292 0.0369484 0.935661 7.02918e-05 0.79592 1.00384e-07C0.656179 -7.0091e-05 0.518884 0.0366707 0.397855 0.106525C0.276826 0.176379 0.176332 0.276881 0.106489 0.397916C0.0366459 0.518951 -8.25111e-05 0.656249 1.39184e-07 0.795991V42.1837C3.86085e-05 42.3234 0.0368432 42.4607 0.106715 42.5816C0.176587 42.7026 0.277066 42.803 0.398054 42.8729C0.519043 42.9427 0.656279 42.9795 0.795973 42.9794C0.935667 42.9794 1.0729 42.9427 1.19388 42.8728L37.0102 22.1789C37.1311 22.109 37.2315 22.0086 37.3013 21.8876C37.371 21.7667 37.4078 21.6295 37.4078 21.4899C37.4078 21.3502 37.371 21.213 37.3013 21.0921C37.2315 20.9711 37.1311 20.8707 37.0102 20.8008ZM13.376 21.4899L1.59184 39.512V3.46769L13.376 21.4899ZM14.7571 22.2858H33.6437L3.29033 39.8231L14.7571 22.2858ZM14.7571 20.694L3.29033 3.15668L33.6437 20.694H14.7571Z" fill="#0F142B"/>
</svg>