<svg xmlns="http://www.w3.org/2000/svg" width="44" height="46" viewBox="0 0 44 46" fill="none">
  <path d="M40.0118 2.84996C38.2811 2.84996 36.8737 4.25783 36.8737 5.98815C36.8737 7.71846 38.2811 9.12633 40.0118 9.12633C41.7426 9.12633 43.15 7.71846 43.15 5.98815C43.15 4.25783 41.7426 2.84996 40.0118 2.84996ZM40.0118 7.55724C39.1469 7.55724 38.4428 6.8535 38.4428 5.98815C38.4428 5.12279 39.1469 4.41905 40.0118 4.41905C40.8768 4.41905 41.5809 5.12279 41.5809 5.98815C41.5809 6.8535 40.8768 7.55724 40.0118 7.55724ZM34.9123 1.7769C35.0301 1.77865 35.147 1.75696 35.2563 1.7131C35.3657 1.66924 35.4652 1.60408 35.5491 1.52141C35.633 1.43874 35.6996 1.34021 35.7451 1.23156C35.7906 1.1229 35.814 1.00629 35.814 0.888498C35.814 0.770708 35.7906 0.654094 35.7451 0.545438C35.6996 0.436782 35.633 0.338254 35.5491 0.255585C35.4652 0.172916 35.3657 0.107756 35.2563 0.063895C35.147 0.0200341 35.0301 -0.00165196 34.9123 9.80761e-05C34.679 0.00356514 34.4564 0.0986892 34.2926 0.264919C34.1288 0.43115 34.037 0.65514 34.037 0.888498C34.037 1.12186 34.1288 1.34585 34.2926 1.51208C34.4564 1.67831 34.679 1.77343 34.9123 1.7769ZM28.6359 4.13054C28.7537 4.13229 28.8707 4.1106 28.98 4.06674C29.0893 4.02288 29.1888 3.95772 29.2727 3.87505C29.3566 3.79238 29.4232 3.69385 29.4687 3.5852C29.5142 3.47654 29.5376 3.35993 29.5376 3.24214C29.5376 3.12435 29.5142 3.00773 29.4687 2.89908C29.4232 2.79042 29.3566 2.69189 29.2727 2.60922C29.1888 2.52655 29.0893 2.46139 28.98 2.41753C28.8707 2.37367 28.7537 2.35199 28.6359 2.35374C28.4026 2.3572 28.18 2.45233 28.0162 2.61856C27.8524 2.78479 27.7606 3.00878 27.7606 3.24214C27.7606 3.47549 27.8524 3.69948 28.0162 3.86572C28.18 4.03195 28.4026 4.12707 28.6359 4.13054ZM39.2273 16.1872H35.3046V12.2645C35.3046 11.8312 34.9537 11.48 34.52 11.48H29.8128V6.77269C29.8128 6.33943 29.4619 5.98815 29.0282 5.98815H0.784546C0.350888 5.98815 0 6.33943 0 6.77269V35.0163C0 35.4496 0.350888 35.8009 0.784546 35.8009H5.49182V40.5082C5.49182 40.9414 5.84271 41.2927 6.27637 41.2927H10.1991V45.2155C10.1991 45.6487 10.55 46 10.9836 46H39.2273C39.661 46 40.0118 45.6487 40.0118 45.2155V16.9718C40.0118 16.5385 39.661 16.1872 39.2273 16.1872ZM38.4428 17.7563V43.3216L35.3046 40.1834V17.7563H38.4428ZM33.7355 13.0491V38.6143L29.8128 34.6915V13.0491H33.7355ZM1.56909 7.55724H28.2437V34.2318H1.56909V7.55724ZM7.06091 35.8009H28.7034L32.6261 39.7236H7.06091V35.8009ZM11.7682 41.2927H34.1952L37.3334 44.4309H11.7682V41.2927Z" fill="#0F142B"/>
  <path d="M23.7823 15.3472L20.4541 12.0186C20.3813 11.9457 20.2948 11.8879 20.1996 11.8484C20.1045 11.809 20.0024 11.7887 19.8994 11.7887C19.7964 11.7887 19.6944 11.809 19.5992 11.8484C19.504 11.8879 19.4176 11.9457 19.3447 12.0186L14.9064 16.4565L10.468 12.0186C10.1738 11.7244 9.65285 11.7244 9.35865 12.0186L6.03041 15.3472C5.88333 15.4943 5.8007 15.6938 5.8007 15.9019C5.8007 16.1099 5.88333 16.3094 6.03041 16.4565L10.4688 20.8945L6.03041 25.3325C5.88333 25.4796 5.8007 25.6791 5.8007 25.8872C5.8007 26.0952 5.88333 26.2947 6.03041 26.4419L9.35865 29.7705C9.43147 29.8434 9.51794 29.9012 9.61312 29.9406C9.70829 29.98 9.8103 30.0004 9.91332 30.0004C10.0163 30.0004 10.1184 29.98 10.2135 29.9406C10.3087 29.9012 10.3952 29.8434 10.468 29.7705L14.9064 25.3325L19.3447 29.7705C19.4176 29.8434 19.504 29.9012 19.5992 29.9406C19.6944 29.98 19.7964 30.0004 19.8994 30.0004C20.0024 30.0004 20.1045 29.98 20.1996 29.9406C20.2948 29.9012 20.3813 29.8434 20.4541 29.7705L23.7823 26.4419C23.9294 26.2947 24.012 26.0952 24.012 25.8872C24.012 25.6791 23.9294 25.4796 23.7823 25.3325L19.344 20.8945L23.7823 16.4565C23.9294 16.3094 24.012 16.1099 24.012 15.9019C24.012 15.6938 23.9294 15.4943 23.7823 15.3472ZM17.6799 20.3398C17.5329 20.487 17.4503 20.6865 17.4503 20.8945C17.4503 21.1025 17.5329 21.302 17.6799 21.4492L22.1183 25.8872L19.8996 28.1063L15.4612 23.6683C15.3081 23.5151 15.1072 23.4384 14.9066 23.4384C14.7059 23.4384 14.5051 23.5151 14.3519 23.6683L9.91352 28.1063L7.69443 25.8872L12.1328 21.4492C12.2798 21.302 12.3624 21.1025 12.3624 20.8945C12.3624 20.6865 12.2798 20.487 12.1328 20.3398L7.69443 15.9019L9.91313 13.6828L14.3515 18.1208C14.4986 18.2678 14.6981 18.3505 14.9062 18.3505C15.1142 18.3505 15.3137 18.2678 15.4608 18.1208L19.8992 13.6828L22.1179 15.9019L17.6799 20.3398Z" fill="#0F142B"/>
</svg>