<svg xmlns="http://www.w3.org/2000/svg" width="53" height="49" viewBox="0 0 53 49" fill="none">
  <path d="M23.0543 39.9016V34.5814H38.1282C41.5507 34.5814 44.3351 31.7969 44.3351 28.3745C44.3351 24.952 41.5507 22.1676 38.1282 22.1676H33.6947V7.98033C33.6947 4.55787 30.9102 1.77341 27.4878 1.77341C24.0653 1.77341 21.2809 4.55787 21.2809 7.98033V11.5271H6.20692C2.78447 11.5271 0 14.3116 0 17.7341C0 21.1565 2.78447 23.941 6.20692 23.941H10.6404V39.9016C10.6404 43.3241 13.4249 46.1086 16.8474 46.1086C20.2698 46.1086 23.0543 43.3241 23.0543 39.9016ZM23.0543 7.98033C23.0543 5.53591 25.0434 3.54681 27.4878 3.54681C29.9322 3.54681 31.9213 5.53591 31.9213 7.98033V22.1676H28.2809C29.4321 21.0401 30.1479 19.4689 30.1479 17.7341C30.1479 14.3116 27.3634 11.5271 23.941 11.5271H23.0543V7.98033ZM1.77341 17.7341C1.77341 15.2896 3.7625 13.3005 6.20692 13.3005H23.941C26.3854 13.3005 28.3745 15.2896 28.3745 17.7341C28.3745 20.1785 26.3854 22.1676 23.941 22.1676C23.7058 22.1676 23.4803 22.261 23.314 22.4273C23.1477 22.5936 23.0543 22.8191 23.0543 23.0543C23.0543 23.2894 23.1477 23.515 23.314 23.6813C23.4803 23.8476 23.7058 23.941 23.941 23.941H38.1282C40.5726 23.941 42.5617 25.9301 42.5617 28.3745C42.5617 30.8189 40.5726 32.808 38.1282 32.808H20.3942C17.9498 32.808 15.9607 30.8189 15.9607 28.3745C15.9607 25.9301 17.9498 23.941 20.3942 23.941C20.6293 23.941 20.8549 23.8476 21.0212 23.6813C21.1875 23.515 21.2809 23.2894 21.2809 23.0543C21.2809 22.8191 21.1875 22.5936 21.0212 22.4273C20.8549 22.261 20.6293 22.1676 20.3942 22.1676H6.20692C3.7625 22.1676 1.77341 20.1785 1.77341 17.7341ZM12.4138 39.9016V23.941H16.0542C14.903 25.0684 14.1872 26.6397 14.1872 28.3745C14.1872 31.7969 16.9717 34.5814 20.3942 34.5814H21.2809V39.9016C21.2809 42.3461 19.2918 44.3351 16.8474 44.3351C14.4029 44.3351 12.4138 42.3461 12.4138 39.9016ZM42.5617 7.09362C44.5174 7.09362 46.1086 5.50244 46.1086 3.54681C46.1086 1.59119 44.5174 0 42.5617 0C40.6061 0 39.0149 1.59119 39.0149 3.54681C39.0149 5.50244 40.6061 7.09362 42.5617 7.09362ZM42.5617 1.77341C43.5398 1.77341 44.3351 2.56878 44.3351 3.54681C44.3351 4.52485 43.5398 5.32022 42.5617 5.32022C41.5837 5.32022 40.7883 4.52485 40.7883 3.54681C40.7883 2.56878 41.5837 1.77341 42.5617 1.77341Z" fill="#0F142B"/>
  <path d="M14.8718 39.9017V36.3548C14.8718 36.1197 14.7784 35.8941 14.6121 35.7279C14.4458 35.5616 14.2202 35.4681 13.9851 35.4681C13.7499 35.4681 13.5244 35.5616 13.3581 35.7279C13.1918 35.8941 13.0984 36.1197 13.0984 36.3548V39.9017C13.0984 40.1368 13.1918 40.3624 13.3581 40.5287C13.5244 40.6949 13.7499 40.7884 13.9851 40.7884C14.2202 40.7884 14.4458 40.6949 14.6121 40.5287C14.7784 40.3624 14.8718 40.1368 14.8718 39.9017ZM15.3909 43.0202C15.2974 42.8058 15.123 42.637 14.9057 42.5506C14.6883 42.4642 14.4456 42.4672 14.2304 42.5589C14.0153 42.6507 13.8451 42.8237 13.7569 43.0403C13.6687 43.257 13.6697 43.4997 13.7596 43.7156C14.2826 44.9374 15.0891 46.0172 16.1123 46.8654C16.2776 47.0022 16.478 47.0689 16.6773 47.0689C16.9322 47.0689 17.1856 46.9594 17.361 46.7477C17.5108 46.5664 17.5826 46.3331 17.5605 46.099C17.5385 45.8648 17.4243 45.649 17.2433 45.499C16.4376 44.8317 15.8026 43.9819 15.3909 43.0202ZM45.1728 37.2415H41.626C41.3909 37.2415 41.1653 37.335 40.999 37.5013C40.8328 37.6675 40.7393 37.8931 40.7393 38.1283C40.7393 38.3634 40.8328 38.589 40.999 38.7552C41.1653 38.9215 41.3909 39.015 41.626 39.015H45.1728C45.408 39.015 45.6336 38.9215 45.7998 38.7552C45.9661 38.589 46.0596 38.3634 46.0596 38.1283C46.0596 37.8931 45.9661 37.6675 45.7998 37.5013C45.6336 37.335 45.408 37.2415 45.1728 37.2415ZM52.1133 37.2415H48.7197C48.4845 37.2415 48.259 37.335 48.0927 37.5013C47.9264 37.6675 47.833 37.8931 47.833 38.1283C47.833 38.3634 47.9264 38.589 48.0927 38.7552C48.259 38.9215 48.4845 39.015 48.7197 39.015H52.1133C52.3485 39.015 52.574 38.9215 52.7403 38.7552C52.9066 38.589 53 38.3634 53 38.1283C53 37.8931 52.9066 37.6675 52.7403 37.5013C52.574 37.335 52.3485 37.2415 52.1133 37.2415ZM38.0792 37.2415H34.5324C34.2972 37.2415 34.0717 37.335 33.9054 37.5013C33.7391 37.6675 33.6457 37.8931 33.6457 38.1283C33.6457 38.3634 33.7391 38.589 33.9054 38.7552C34.0717 38.9215 34.2972 39.015 34.5324 39.015H38.0792C38.3144 39.015 38.5399 38.9215 38.7062 38.7552C38.8725 38.589 38.9659 38.3634 38.9659 38.1283C38.9659 37.8931 38.8725 37.6675 38.7062 37.5013C38.5399 37.335 38.3144 37.2415 38.0792 37.2415ZM29.1244 44.8672C28.4189 45.6392 27.5391 46.2315 26.5583 46.5947C26.3434 46.6803 26.1704 46.8464 26.0762 47.0576C25.982 47.2689 25.9741 47.5086 26.054 47.7256C26.134 47.9426 26.2956 48.1199 26.5043 48.2195C26.713 48.3192 26.9524 48.3333 27.1714 48.2591C28.4183 47.7974 29.5368 47.0445 30.4338 46.0631C30.5124 45.9772 30.5732 45.8766 30.6128 45.7671C30.6525 45.6576 30.6702 45.5414 30.6649 45.425C30.6596 45.3087 30.6315 45.1946 30.5821 45.0891C30.5328 44.9837 30.4631 44.889 30.3771 44.8104C30.2911 44.7319 30.1905 44.6711 30.081 44.6314C29.9715 44.5918 29.8553 44.5741 29.739 44.5794C29.6227 44.5846 29.5085 44.6128 29.4031 44.6622C29.2976 44.7115 29.2029 44.7812 29.1244 44.8672ZM31.7191 37.9751C31.484 37.9751 31.2584 38.0685 31.0921 38.2348C30.9258 38.4011 30.8324 38.6266 30.8324 38.8618V40.4634C30.8324 41.0384 30.7579 41.6081 30.6112 42.1568C30.581 42.2692 30.5733 42.3865 30.5885 42.502C30.6037 42.6174 30.6415 42.7287 30.6997 42.8295C30.7579 42.9304 30.8354 43.0187 30.9278 43.0896C31.0202 43.1605 31.1256 43.2124 31.2381 43.2425C31.3152 43.2634 31.3922 43.2733 31.468 43.2733C31.6631 43.2732 31.8528 43.2086 32.0075 43.0897C32.1623 42.9708 32.2735 42.8042 32.3239 42.6156C32.5114 41.9136 32.6061 41.19 32.6056 40.4634V38.8618C32.6058 38.3721 32.2088 37.9751 31.7191 37.9751ZM23.3717 46.9953H21.4039C20.9384 46.9953 20.474 46.9463 20.0235 46.8494C19.9097 46.8246 19.792 46.8224 19.6774 46.8432C19.5627 46.864 19.4533 46.9072 19.3554 46.9704C19.2575 47.0336 19.173 47.1155 19.1069 47.2115C19.0408 47.3075 18.9943 47.4155 18.9701 47.5295C18.9206 47.7594 18.9645 47.9995 19.092 48.1971C19.2196 48.3946 19.4203 48.5334 19.6502 48.5829C20.2265 48.7066 20.8143 48.7689 21.4037 48.7687H23.3715C23.6067 48.7687 23.8322 48.6753 23.9985 48.5091C24.1648 48.3428 24.2583 48.1173 24.2583 47.8821C24.2583 47.6469 24.1649 47.4214 23.9987 47.2551C23.8324 47.0888 23.6069 46.9953 23.3717 46.9953ZM45.463 12.9745C45.7293 12.9745 45.9848 12.8687 46.1731 12.6804C46.3614 12.492 46.4672 12.2366 46.4672 11.9703C46.4672 11.704 46.3614 11.4485 46.1731 11.2602C45.9848 11.0719 45.7293 10.9661 45.463 10.9661C45.1967 10.9661 44.9413 11.0719 44.7529 11.2602C44.5646 11.4485 44.4588 11.704 44.4588 11.9703C44.4588 12.2366 44.5646 12.492 44.7529 12.6804C44.9413 12.8687 45.1967 12.9745 45.463 12.9745Z" fill="#0F142B"/>
</svg>